<svg id="Capa_1" data-name="Capa 1" xmlns="http://www.w3.org/2000/svg" viewBox="0 0 226.77 316.32"><defs><style>.cls-1{fill:none;stroke:#c6c6c6;stroke-linecap:round;stroke-linejoin:round;stroke-width:5px;}.cls-2,.cls-3{fill:#009845;stroke:#009845;stroke-miterlimit:10;}.cls-2{stroke-width:3px;}.cls-3{stroke-width:0.5px;}.cls-4{font-size:23px;fill:#3c3c3b;font-family:CenturyGothic-Bold, Century Gothic;font-weight:700;letter-spacing:0.02em;}</style></defs><path class="cls-1" d="M73.87,149.3H62.71c-25,0-42-29.08-27.59-50.34a32.74,32.74,0,0,1,14-11.5c1.8-.8,1.93-2.28,2.31-3.86C53.83,73.4,60.1,67,70.46,64.77c6-1.27,11.72.4,16.7,4.23,9.18-18.32,27-27.52,46.51-24.61,17,2.53,31.39,15.87,35.81,33.3a40.72,40.72,0,0,1,1.31,9.88c0,1.54.44,2.5,2.13,2.91A33.05,33.05,0,0,1,192.67,104a27.6,27.6,0,0,1,3.53,21.27,31.28,31.28,0,0,1-15.36,20.61c-4.43,2.37-18.27,3.43-23.32,3.43"/><path class="cls-2" d="M113.38,145.59a2.62,2.62,0,0,1-2.51-3.35.33.33,0,0,0-.11-.39c-1.92-1.82-3.82-3.66-5.74-5.49l-5.73-5.5a1,1,0,0,1-.31-1,1,1,0,0,1,.76-.72,1,1,0,0,1,.92.26l2.22,2.11,2.44,2.32,2.24,2.17,4.53,4.35a.47.47,0,0,0,.54.13,2.33,2.33,0,0,1,1.43,0,.28.28,0,0,0,.33-.1l4.59-5.08,2.24-2.45a1,1,0,1,1,1.51,1.34c-.63.71-1.27,1.41-1.9,2.11l-4.91,5.4a.36.36,0,0,0-.07.41A2.62,2.62,0,0,1,113.38,145.59Zm0-1.82a.83.83,0,0,0,.83-.82.83.83,0,0,0-1.65,0A.82.82,0,0,0,113.38,143.77Z"/><path class="cls-2" d="M137.2,144h-1.07a1,1,0,1,1,0-2c.73,0,1.45,0,2.17,0a1,1,0,0,1,1,1,1,1,0,0,1-1,1Z"/><path class="cls-2" d="M89.55,142h1.07a1,1,0,0,1,1,.92,1,1,0,0,1-.91,1.09q-1.2,0-2.4,0a1,1,0,0,1-.91-1.07,1,1,0,0,1,1-.94Z"/><path class="cls-2" d="M112.4,166.78v-1.07a1,1,0,1,1,2,0c0,.72,0,1.45,0,2.17a1,1,0,0,1-1,1,1,1,0,0,1-1-1Z"/><path class="cls-2" d="M114.38,119.13v1.07a1,1,0,0,1-.92,1,1,1,0,0,1-1.09-.92q-.06-1.2,0-2.4a1,1,0,0,1,1.06-.9,1,1,0,0,1,.94,1C114.38,118.4,114.38,118.76,114.38,119.13Z"/><path class="cls-3" d="M84.76,111.14c1-.83,1.91-1.6,2.85-2.33a40.7,40.7,0,0,1,28.67-8.91,40.09,40.09,0,0,1,24.12,9.92,40.6,40.6,0,0,1,14.33,28.07,41.18,41.18,0,0,1-24.4,41.24c-14.23,6.11-28,4.84-40.77-3.94-10-6.91-15.69-16.72-17.33-28.82a40.69,40.69,0,0,1,.92-15.23,3.17,3.17,0,0,1,3.07-2.78,3.1,3.1,0,0,1,3.23,3.91,36.2,36.2,0,0,0-1.14,10,35.79,35.79,0,0,0,4.33,15.81,35,35,0,0,0,49.92,12.54,33.4,33.4,0,0,0,15.55-24.48c1.65-12.66-2.48-23.39-12.24-31.72A34.94,34.94,0,0,0,91,114.3a7.58,7.58,0,0,0-1.6,1.44c1.91-.11,3.69-.27,5.47-.32a3.16,3.16,0,0,1,.54,6.29c-2.17.27-4.37.4-6.55.57-2,.16-3.94.28-5.91.44-2.88.24-4.23-1-4.36-3.84-.19-4.16-.48-8.32-.66-12.48a3.06,3.06,0,0,1,2.39-3.14,3.16,3.16,0,0,1,3.53,1.61,9,9,0,0,1,.53,3.33A15.05,15.05,0,0,0,84.76,111.14Z"/><text class="cls-4" transform="translate(44.39 265.45)">RPO flexible</text></svg>