<svg id="Capa_1" data-name="Capa 1" xmlns="http://www.w3.org/2000/svg" viewBox="0 0 226.77 316.32"><defs><style>.cls-1,.cls-2,.cls-3{fill:none;stroke-linecap:round;stroke-linejoin:round;}.cls-1,.cls-2{stroke:#c6c6c6;}.cls-1{stroke-width:3px;}.cls-2,.cls-3{stroke-width:5px;}.cls-3{stroke:#009845;}.cls-4{font-size:23px;fill:#3c3c3b;font-family:CenturyGothic-Bold, Century Gothic;font-weight:700;letter-spacing:0.02em;}</style></defs><path class="cls-1" d="M122.41,92.1a14,14,0,0,1,5.3,4.55,13.73,13.73,0,0,1,2.14,8.07,15,15,0,0,1-1.55,6.65,12.53,12.53,0,0,1-4.94,5.22,16.39,16.39,0,0,1-8.63,2.06h-.55V125H112.6v-6.41a18.1,18.1,0,0,1-7.76-2.41,15.59,15.59,0,0,1-5.34-5.07,15.19,15.19,0,0,1-2.34-6.37h1.59a13.63,13.63,0,0,0,1.9,5.15,14.94,14.94,0,0,0,4.59,4.74,15.76,15.76,0,0,0,7.36,2.54v-27a59.16,59.16,0,0,1-8.27-3,13.74,13.74,0,0,1-5.27-4.36,12.68,12.68,0,0,1-2.13-7.71,12.67,12.67,0,0,1,3.91-9.54q3.93-3.75,11.12-3.75h.64V54.79h1.58v7.13A15.91,15.91,0,0,1,124,66a15.33,15.33,0,0,1,4.55,7.83h-1.58a14.73,14.73,0,0,0-4-6.68,14,14,0,0,0-8.7-3.84V89.06A54.75,54.75,0,0,1,122.41,92.1Zm-22-10.2a12.33,12.33,0,0,0,4.75,3.95,49.6,49.6,0,0,0,7.48,2.73V63.26H112q-6.09,0-9.77,3.12a10.87,10.87,0,0,0-3.68,8.75A11.31,11.31,0,0,0,100.37,81.9Zm24.41,31.77a12.3,12.3,0,0,0,3.48-9,12.11,12.11,0,0,0-1.9-7.08,12.78,12.78,0,0,0-4.79-4.19,44.77,44.77,0,0,0-7.39-2.81v26.59h.55Q121.3,117.23,124.78,113.67Z"/><circle class="cls-2" cx="113.39" cy="89.89" r="55.59"/><line class="cls-3" x1="113.39" y1="192.47" x2="113.39" y2="160.45"/><polyline class="cls-3" points="100.47 181.11 113.39 192.47 126.3 181.11"/><line class="cls-3" x1="82.45" y1="177.11" x2="82.45" y2="150.76"/><polyline class="cls-3" points="69.53 165.74 82.45 177.1 95.37 165.74"/><line class="cls-3" x1="144.32" y1="177.11" x2="144.32" y2="150.76"/><polyline class="cls-3" points="131.4 165.74 144.32 177.1 157.24 165.74"/><text class="cls-4" transform="translate(28.51 267.11)">Reduce costos <tspan x="-0.92" y="25">de adquisición</tspan></text></svg>