<svg id="Capa_1" data-name="Capa 1" xmlns="http://www.w3.org/2000/svg" viewBox="0 0 170.08 170.08"><defs><style>.cls-1{fill:none;stroke:#2d2a26;stroke-linecap:round;stroke-linejoin:round;stroke-width:4px;}.cls-2{fill:#2d2a26;}</style></defs><rect class="cls-1" x="47.09" y="31.18" width="25.34" height="107.72"/><path class="cls-2" d="M57.51,48.22a2.25,2.25,0,1,1,2.25,2.25,2.24,2.24,0,0,1-2.25-2.25"/><path class="cls-2" d="M57.51,72.42a2.25,2.25,0,1,1,2.25,2.25,2.25,2.25,0,0,1-2.25-2.25"/><path class="cls-2" d="M57.51,97.66a2.25,2.25,0,1,1,2.25,2.25,2.25,2.25,0,0,1-2.25-2.25"/><path class="cls-2" d="M57.51,121.85a2.25,2.25,0,1,1,2.25,2.25,2.25,2.25,0,0,1-2.25-2.25"/><rect class="cls-1" x="72.37" y="31.18" width="25.34" height="107.72"/><path class="cls-2" d="M82.79,48.22A2.25,2.25,0,1,1,85,50.47a2.24,2.24,0,0,1-2.25-2.25"/><path class="cls-2" d="M82.79,72.42A2.25,2.25,0,1,1,85,74.67a2.25,2.25,0,0,1-2.25-2.25"/><path class="cls-2" d="M82.79,97.66A2.25,2.25,0,1,1,85,99.91a2.25,2.25,0,0,1-2.25-2.25"/><path class="cls-2" d="M82.79,121.85A2.25,2.25,0,1,1,85,124.1a2.25,2.25,0,0,1-2.25-2.25"/><rect class="cls-1" x="97.64" y="31.18" width="25.34" height="107.72"/><path class="cls-2" d="M108.07,48.22a2.25,2.25,0,1,1,2.24,2.25,2.24,2.24,0,0,1-2.24-2.25"/><path class="cls-2" d="M108.07,72.42a2.25,2.25,0,1,1,2.24,2.25,2.24,2.24,0,0,1-2.24-2.25"/><path class="cls-2" d="M108.07,97.66a2.25,2.25,0,1,1,2.24,2.25,2.24,2.24,0,0,1-2.24-2.25"/><path class="cls-2" d="M108.07,121.85a2.25,2.25,0,1,1,2.24,2.25,2.24,2.24,0,0,1-2.24-2.25"/></svg>