<svg id="Capa_1" data-name="Capa 1" xmlns="http://www.w3.org/2000/svg" viewBox="0 0 170.08 170.08"><defs><style>.cls-1,.cls-2{fill:none;stroke-width:4px;}.cls-1{stroke:#2d2a26;stroke-miterlimit:10;}.cls-2{stroke:#009845;stroke-linecap:round;stroke-linejoin:round;}</style></defs><path class="cls-1" d="M137.39,60.49c-.52,19.27-4.59,37.46-16.3,53.3-8.57,11.59-19.93,19.42-33.26,24.6a8.16,8.16,0,0,1-6.27-.27C56.17,128,41.18,109.18,35.27,82.83A91.78,91.78,0,0,1,33,54.06c.26-2.79,1.59-3.85,4.15-4.32,12.15-2.28,24.11-5.24,35.24-10.87a47.39,47.39,0,0,0,10-6.48c1.56-1.35,3.21-1.72,4.9-.33,10.66,8.76,23.42,12.62,36.5,15.76,3.27.78,6.58,1.4,9.88,2.06A3.71,3.71,0,0,1,137,53.51,62.53,62.53,0,0,1,137.39,60.49Z"/><rect class="cls-2" x="61.32" y="78.78" width="47.44" height="33.48"/><path class="cls-2" d="M103.14,78.78H67.49V75.64a17.83,17.83,0,0,1,35.65,0Z"/></svg>