<svg id="Capa_1" data-name="Capa 1" xmlns="http://www.w3.org/2000/svg" viewBox="0 0 312.76 301.85"><defs><style>.cls-1{fill:none;stroke:#009845;stroke-linecap:round;stroke-linejoin:round;stroke-width:5px;}.cls-2{font-size:23px;fill:#3c3c3b;font-family:CenturyGothic-Bold, Century Gothic;font-weight:700;letter-spacing:0.02em;}</style></defs><line class="cls-1" x1="104.3" y1="58.38" x2="208.46" y2="58.38"/><path class="cls-1" d="M133.77,57.55V51A9.09,9.09,0,0,1,142.86,42h24.23A9.09,9.09,0,0,1,176.17,51v6.52"/><path class="cls-1" d="M120.87,58.38H191.2L184.61,147a10.19,10.19,0,0,1-10.16,9.43H137.62A10.19,10.19,0,0,1,127.46,147Z"/><line class="cls-1" x1="139.18" y1="77.55" x2="141.86" y2="135.44"/><line class="cls-1" x1="172.64" y1="77.55" x2="170.13" y2="135.44"/><line class="cls-1" x1="156.38" y1="77.55" x2="156.38" y2="135.44"/><text class="cls-2" transform="translate(23.68 221.49)">Eliminación accidental <tspan x="39.78" y="25">o corrupción de </tspan><tspan x="63.71" y="50">información</tspan></text></svg>