<svg id="Capa_1" data-name="Capa 1" xmlns="http://www.w3.org/2000/svg" viewBox="0 0 226.77 303.5"><defs><style>.cls-1,.cls-2{fill:none;stroke-linecap:round;stroke-linejoin:round;stroke-width:5px;}.cls-1{stroke:#c6c6c6;}.cls-2{stroke:#009845;}.cls-3{font-size:23px;fill:#3c3c3b;font-family:CenturyGothic-Bold, Century Gothic;font-weight:700;letter-spacing:0.02em;}</style></defs><polyline class="cls-1" points="130.78 167.14 117.69 180.22 104.97 167.5"/><line class="cls-1" x1="117.69" y1="180.22" x2="117.69" y2="165.04"/><polyline class="cls-1" points="126.75 145.36 117.75 154.36 109 145.62"/><line class="cls-1" x1="117.75" y1="154.36" x2="117.75" y2="143.92"/><polyline class="cls-1" points="104.97 61.25 118.06 48.16 130.78 60.88"/><line class="cls-1" x1="118.06" y1="48.16" x2="118.06" y2="63.35"/><polyline class="cls-1" points="109 83.03 118 74.03 126.75 82.77"/><line class="cls-1" x1="118" y1="74.02" x2="118" y2="84.47"/><polyline class="cls-1" points="64.93 127.1 51.85 114.01 64.57 101.29"/><line class="cls-1" x1="51.85" y1="114.01" x2="67.03" y2="114.01"/><polyline class="cls-1" points="86.71 123.07 77.71 114.07 86.46 105.32"/><line class="cls-1" x1="77.71" y1="114.07" x2="88.15" y2="114.07"/><polyline class="cls-1" points="170.82 101.29 183.91 114.38 171.19 127.1"/><line class="cls-1" x1="183.91" y1="114.38" x2="168.72" y2="114.38"/><polyline class="cls-1" points="149.04 105.32 158.05 114.32 149.3 123.07"/><line class="cls-1" x1="158.05" y1="114.32" x2="147.6" y2="114.32"/><path class="cls-2" d="M117.86,133.55a2.51,2.51,0,0,1-1.77-.83l-13.86-13.85c-1-1-2.1-2-3-3.12a2.27,2.27,0,0,1,.14-3.34q3.5-3.51,7-7L116,95.83c1.32-1.32,2.54-1.32,3.85,0l16.58,16.55a2.36,2.36,0,0,1,0,3.62q-8.31,8.33-16.64,16.63A2.66,2.66,0,0,1,117.86,133.55Z"/><text class="cls-3" transform="translate(47.38 264.7)">Flexibilidad</text></svg>