<svg id="Capa_1" data-name="Capa 1" xmlns="http://www.w3.org/2000/svg" viewBox="0 0 226.77 303.5"><defs><style>.cls-1,.cls-2{fill:none;stroke:#009845;stroke-width:5px;}.cls-1{stroke-linecap:round;stroke-linejoin:round;}.cls-2{stroke-miterlimit:10;}.cls-3{font-size:23px;fill:#3c3c3b;font-family:CenturyGothic-Bold, Century Gothic;font-weight:700;letter-spacing:0.02em;}</style></defs><path class="cls-1" d="M91.52,92.4c0-5,0-10.11.08-15.16C92,61,105.43,47.92,121.42,48.17a29.78,29.78,0,0,1,29.49,29.08c.12,5,.1,10.14.08,15.09,0,4.27,0,8.53,0,12.8a3.27,3.27,0,0,1-.53,2.31,3.46,3.46,0,0,1-2.44.55c-3.83-.06-7.67-.08-11.5-.08H128.9l-7.65,0-7.65,0c-6.38,0-12.77,0-19.15.07-1.35,0-2-.17-2.44-.55a3.3,3.3,0,0,1-.53-2.32C91.55,100.89,91.53,96.65,91.52,92.4Z"/><path class="cls-1" d="M166.64,172.41c0,4.81-1.07,5.85-6,5.86q-39.42,0-78.83,0c-4.91,0-6-1-6-5.85q0-29.37,0-58.75c0-4.94.69-5.63,5.61-5.65l17.09,0H161c4.93,0,5.61.71,5.62,5.64Q166.69,143,166.64,172.41Z"/><path class="cls-2" d="M128.08,142.63v-7a6.8,6.8,0,0,0-13.6,0v7a10.8,10.8,0,0,0-4.28,8.51,11.06,11.06,0,1,0,22.11,0A10.76,10.76,0,0,0,128.08,142.63Z"/><text class="cls-3" transform="translate(54.5 264.7)">Seguridad</text></svg>