<svg id="Capa_1" data-name="Capa 1" xmlns="http://www.w3.org/2000/svg" viewBox="0 0 170.08 170.08"><defs><style>.cls-1,.cls-2{fill:none;stroke-linecap:round;stroke-linejoin:round;stroke-width:4px;}.cls-1{stroke:#009845;}.cls-2{stroke:#2d2a26;}</style></defs><path class="cls-1" d="M128.53,71.09c-.32,6.26.34,14-.38,21.72-.75,8-4.57,14.45-9.72,20.26-7.13,8-16.07,13.87-24.65,20.13-2.26,1.66-4.54,3.29-6.81,4.93a2.67,2.67,0,0,1-3.47.22c-10.43-7.81-21.71-14.56-30.72-24.14-5-5.35-9.12-11.31-10.4-18.75a50.87,50.87,0,0,1-.79-8.35c-.08-12.08,0-24.17-.08-36.25,0-3.22,1.14-4.8,4.23-5.87C58,40.73,70.11,36.21,82.26,31.72a7.87,7.87,0,0,1,5.86.06q18.48,6.88,37.05,13.51c2.53.89,3.45,2.3,3.4,4.91C128.45,56.68,128.53,63.15,128.53,71.09Z"/><circle class="cls-2" cx="85.05" cy="106.53" r="5.96"/><circle class="cls-2" cx="109.94" cy="63.55" r="5.96"/><circle class="cls-2" cx="60.14" cy="63.55" r="5.96"/><line class="cls-2" x1="66.09" y1="63.55" x2="103.74" y2="63.55"/><line class="cls-2" x1="63.16" y1="68.67" x2="82.06" y2="101.39"/><line class="cls-2" x1="103.99" y1="63.55" x2="66.09" y2="63.55"/><line class="cls-2" x1="88.05" y1="101.39" x2="106.94" y2="68.68"/></svg>