<svg id="Capa_1" data-name="Capa 1" xmlns="http://www.w3.org/2000/svg" viewBox="0 0 170.08 170.08"><defs><style>.cls-1,.cls-2,.cls-3,.cls-4,.cls-5{fill:none;stroke-linecap:round;stroke-linejoin:round;stroke-width:4px;}.cls-1,.cls-2,.cls-3,.cls-4{stroke:#009845;}.cls-2{stroke-dasharray:12.93 12.93;}.cls-3{stroke-dasharray:11.29 11.29;}.cls-4{stroke-dasharray:23;}.cls-5{stroke:#2d2a26;}</style></defs><line class="cls-1" x1="126.36" y1="72.46" x2="126.36" y2="83.96"/><path class="cls-1" d="M115,106.91a84.56,84.56,0,0,1-11.27,2.25"/><path class="cls-2" d="M126.36,42.2c-1.06,14.49-82.92,14.47-83.94,0,1.06-14.5,82.91-14.48,83.94,0Z"/><line class="cls-1" x1="126.36" y1="98.88" x2="126.36" y2="106.88"/><path class="cls-3" d="M126.36,118.16v7.64c0,2.18-2.41,4.21-6.57,5.92"/><path class="cls-1" d="M114.44,133.49c-2.35.63-5,1.19-7.83,1.66"/><line class="cls-1" x1="126.36" y1="51.03" x2="126.36" y2="62.53"/><path class="cls-1" d="M114.47,78.71a88.72,88.72,0,0,1-11.29,2.17"/><line class="cls-1" x1="42.42" y1="44.1" x2="42.42" y2="53.1"/><line class="cls-1" x1="42.42" y1="61.82" x2="42.42" y2="70.82"/><line class="cls-4" x1="42.42" y1="43.27" x2="42.42" y2="42.2"/><path class="cls-5" d="M103.18,92.31V111.8c0,4.4-13.6,8-30.38,8s-30.38-3.57-30.38-8"/><ellipse class="cls-5" cx="72.8" cy="70.4" rx="30.38" ry="7.97"/><line class="cls-5" x1="42.42" y1="92.31" x2="42.42" y2="111.66"/><path class="cls-5" d="M42.42,130.92c0,4.41,13.6,8,30.38,8s30.38-3.57,30.38-8V111.43"/><line class="cls-5" x1="42.42" y1="111.43" x2="42.42" y2="130.78"/><path class="cls-5" d="M103.18,71.78V91.27c0,4.41-13.6,8-30.38,8s-30.38-3.57-30.38-8"/><line class="cls-5" x1="42.42" y1="71.78" x2="42.42" y2="91.13"/></svg>