<svg id="Capa_1" data-name="Capa 1" xmlns="http://www.w3.org/2000/svg" viewBox="0 0 170.08 170.08"><defs><style>.cls-1{fill:none;stroke:#009845;stroke-linecap:round;stroke-linejoin:round;stroke-width:4px;}</style></defs><path class="cls-1" d="M19.4,85.15H52.77a22.39,22.39,0,0,1,4.15-2.52l1.61-.71c3.3-1.46,3.52-1.54,2.31-5-2.84-8,2.62-16.24,11.75-16.81,2-.13,4.13.61,6.15,1.16A38.2,38.2,0,0,1,83,63.07c1.69-2.32,3.12-4.63,4.89-6.65,8.3-9.45,18.8-13.08,30.91-10,12.59,3.21,20.28,11.72,22.87,24.55a44,44,0,0,1,.61,7.7c0,1.3.45,1.67,1.67,1.88,5.24.88,10.1,2.67,13.85,6.67,6.36,6.79,8.33,14.71,4.88,23.38s-10.11,13.48-19.56,13.94c-4.28.21-8.58.15-12.86.15-20.92,0-41.84,0-62.76,0-6,0-11.44-1.49-16.08-5.5A22.5,22.5,0,0,1,47,113.7H27.81"/><line class="cls-1" x1="5.67" y1="94.35" x2="60.96" y2="94.35"/><line class="cls-1" x1="15.01" y1="104.51" x2="53.16" y2="104.51"/></svg>