<svg id="Capa_1" data-name="Capa 1" xmlns="http://www.w3.org/2000/svg" viewBox="0 0 226.77 333.23"><defs><style>.cls-1{fill:#009845;}.cls-2{fill:#c6c6c6;}.cls-3{font-size:23px;fill:#3c3c3b;font-family:CenturyGothic-Bold, Century Gothic;font-weight:700;letter-spacing:0.02em;}</style></defs><path class="cls-1" d="M62.27,93.55c5.06,0,10.11,0,15.17,0a1.49,1.49,0,0,0,1.59-1A61.3,61.3,0,0,1,91.27,75.47,62.35,62.35,0,0,1,125.46,58a41,41,0,0,1,5.74-.64c.83,0,1.16-.34,1.14-1.19q-.06-2.57,0-5.13c0-.77-.29-1-1-1q-3.87,0-7.74,0c-2.13,0-3.58-1.3-3.57-3.14a3.21,3.21,0,0,1,3.51-3.24q12.17,0,24.32,0c2.14,0,3.56,1.34,3.56,3.19S150,50,147.76,50c-2.62,0-5.24,0-7.85,0-.9,0-1.24.3-1.21,1.2.05,1.63,0,3.27,0,4.91,0,.83.36,1.16,1.17,1.2a62.89,62.89,0,0,1,58.27,54.62A63,63,0,0,1,84,156.17a56,56,0,0,1-5-8.45,1.69,1.69,0,0,0-1.77-1.11c-2.65,0-5.31,0-8,0a3.19,3.19,0,0,1-3-1.76A3.17,3.17,0,0,1,69,140.25c3.86,0,7.71,0,11.57,0a3.25,3.25,0,0,1,3.06,2.24,56.63,56.63,0,0,0,6,10.61A57.63,57.63,0,0,0,103,166.32a54.76,54.76,0,0,0,26.17,10.06A55.46,55.46,0,0,0,161,170.79a56.27,56.27,0,0,0,25.52-25.68,54.55,54.55,0,0,0,5.63-21,55.2,55.2,0,0,0-12.85-40,54.86,54.86,0,0,0-34.92-19.88A56.49,56.49,0,0,0,89.88,86.89a52.21,52.21,0,0,0-6,10.36,4,4,0,0,1-4.23,2.7c-10.54,0-21.09,0-31.63,0a9.2,9.2,0,0,1-1.74-.12,3.16,3.16,0,0,1,.81-6.26Z"/><path class="cls-1" d="M135.5,183.32a62.09,62.09,0,0,1-23.06-4.45,62.89,62.89,0,0,1-28.57-22.61,55.79,55.79,0,0,1-5-8.47,1.48,1.48,0,0,0-1.54-1h-.06c-2.1,0-4.23,0-6.29,0H69.32A3.35,3.35,0,0,1,66.13,145a3.34,3.34,0,0,1,2.9-4.87c4.08,0,7.78,0,11.56,0a3.4,3.4,0,0,1,3.21,2.34,56.53,56.53,0,0,0,19.27,23.76,54.76,54.76,0,0,0,26.09,10,55.51,55.51,0,0,0,31.77-5.57A56.19,56.19,0,0,0,186.37,145a54.4,54.4,0,0,0,5.62-21,56.48,56.48,0,0,0-47.62-59.69A56.29,56.29,0,0,0,90,87a52.23,52.23,0,0,0-6,10.33,4.22,4.22,0,0,1-4.36,2.8h0c-7.14,0-14.39,0-21.41,0H48a10.65,10.65,0,0,1-1.77-.13,3.36,3.36,0,0,1-2.47-2,3.39,3.39,0,0,1,.34-3.19,3.32,3.32,0,0,1,3-1.4H65.72c3.84,0,7.81,0,11.72,0h0a1.34,1.34,0,0,0,1.42-.87A61.41,61.41,0,0,1,91.15,75.35a62.77,62.77,0,0,1,34.29-17.54,43.71,43.71,0,0,1,5.75-.64c.75,0,1-.28,1-1,0-1.63,0-3.31,0-5.13a.89.89,0,0,0-.17-.66.91.91,0,0,0-.65-.17h0c-2.7,0-5.41,0-7.75,0a3.94,3.94,0,0,1-2.69-.93,3.06,3.06,0,0,1-1-2.39,3.37,3.37,0,0,1,3.68-3.4c8.69,0,16.65,0,24.32,0,2.2,0,3.73,1.39,3.73,3.36s-1.5,3.36-3.8,3.36h-1.1c-2.22,0-4.51,0-6.76,0h-.05a.81.81,0,0,0-1,1c0,1.77,0,3.48,0,4.92,0,.71.26,1,1,1a63.05,63.05,0,0,1,58.43,54.77,63.2,63.2,0,0,1-54.65,70.87A64.36,64.36,0,0,1,135.5,183.32ZM77.35,146.44a1.83,1.83,0,0,1,1.85,1.2,55.21,55.21,0,0,0,5,8.43,62.61,62.61,0,0,0,28.41,22.48,62.91,62.91,0,0,0,80.77-33.41,62.87,62.87,0,0,0-24.47-78.37,61.48,61.48,0,0,0-29-9.27c-.93-.06-1.34-.49-1.33-1.39,0-1.43.05-3.14,0-4.9a1.39,1.39,0,0,1,.3-1.06,1.49,1.49,0,0,1,1.08-.31c2.25,0,4.54,0,6.75,0h1.1c2.1,0,3.45-1.19,3.45-3s-1.38-3-3.38-3c-7.67,0-15.62,0-24.32,0a3.06,3.06,0,0,0-3.34,3.07,2.72,2.72,0,0,0,.92,2.13,3.72,3.72,0,0,0,2.48.84c2.32,0,5,0,7.74,0h0a1.2,1.2,0,0,1,.9.27,1.23,1.23,0,0,1,.26.91c0,1.81,0,3.49,0,5.11,0,.93-.37,1.34-1.31,1.37a43.26,43.26,0,0,0-5.71.64,62.48,62.48,0,0,0-34.1,17.44A61.19,61.19,0,0,0,79.18,92.67a1.67,1.67,0,0,1-1.72,1.06h0c-3.9,0-7.87,0-11.71,0H47.1A3,3,0,0,0,44.42,95a3,3,0,0,0,1.91,4.66,9,9,0,0,0,1.71.12c3.41,0,6.81,0,10.22,0,7,0,14.27,0,21.41,0h0a3.86,3.86,0,0,0,4-2.59,52.51,52.51,0,0,1,6-10.4A56.67,56.67,0,0,1,144.42,64a56.8,56.8,0,0,1,47.91,60.05,54.61,54.61,0,0,1-5.65,21.09,56.55,56.55,0,0,1-25.59,25.76,55.87,55.87,0,0,1-32,5.61,55.22,55.22,0,0,1-26.25-10.09A58.38,58.38,0,0,1,89.51,153.2a57.27,57.27,0,0,1-6-10.64,3,3,0,0,0-2.9-2.13c-3.79,0-7.48,0-11.56,0a3,3,0,0,0-2.6,4.37,3,3,0,0,0,2.89,1.67H71c2.06,0,4.19,0,6.28,0Z"/><path class="cls-2" d="M107.24,90.17c1-.81,1.9-1.58,2.83-2.31A40.43,40.43,0,0,1,138.55,79a39.72,39.72,0,0,1,24,9.86,40.3,40.3,0,0,1,14.24,27.89,40.9,40.9,0,0,1-24.24,41c-14.14,6.08-27.82,4.82-40.51-3.91-10-6.87-15.6-16.61-17.23-28.64A40.64,40.64,0,0,1,95.7,110a3.16,3.16,0,0,1,3-2.76,3.09,3.09,0,0,1,3.21,3.89,36.16,36.16,0,0,0-1.14,9.93,35.52,35.52,0,0,0,4.31,15.71,34.76,34.76,0,0,0,49.6,12.46A33.15,33.15,0,0,0,170.18,125c1.65-12.59-2.46-23.25-12.15-31.53a34.72,34.72,0,0,0-44.56-.11,8.14,8.14,0,0,0-1.6,1.44c1.9-.12,3.67-.27,5.44-.32a3.14,3.14,0,0,1,.54,6.25c-2.16.27-4.34.39-6.51.57-2,.15-3.92.28-5.87.44-2.87.23-4.21-1-4.34-3.82-.19-4.14-.47-8.27-.65-12.41a3,3,0,0,1,2.38-3.12,3.13,3.13,0,0,1,3.5,1.61,8.81,8.81,0,0,1,.53,3.31A14.85,14.85,0,0,0,107.24,90.17Z"/><path class="cls-1" d="M67.05,123.67c3.78,0,7.56,0,11.34,0a3.1,3.1,0,0,1,3,2.08,3.16,3.16,0,0,1-.88,3.48,3.32,3.32,0,0,1-2.31.82c-7.52,0-15,0-22.56,0-2.16,0-3.5-1.29-3.5-3.21s1.41-3.16,3.55-3.17C59.5,123.66,63.27,123.67,67.05,123.67Z"/><path class="cls-1" d="M66,130.24l-10.34,0c-2.23,0-3.67-1.33-3.67-3.38s1.5-3.33,3.72-3.34q4.14,0,8.28,0h6.5c2.59,0,5.26,0,7.89,0a3.28,3.28,0,0,1,3.19,2.19,3.36,3.36,0,0,1-.92,3.67,3.52,3.52,0,0,1-2.43.86H66Zm-5.78-6.4H55.72c-2,0-3.38,1.19-3.38,3s1.31,3,3.33,3c6.35,0,12.8,0,19,0h3.52a3.15,3.15,0,0,0,2.2-.78,3,3,0,0,0,.83-3.29,2.92,2.92,0,0,0-2.87-2c-2.63,0-5.3,0-7.89,0H60.23Z"/><path class="cls-1" d="M69.9,108.38h8.28a3.13,3.13,0,0,1,3.43,2.91c.13,1.86-1,3.13-3,3.4a9.5,9.5,0,0,1-1.19.07H62.54a11,11,0,0,1-1.52-.11,3.12,3.12,0,0,1-2.85-3.36,3.09,3.09,0,0,1,3.22-2.89C64.23,108.37,67.06,108.38,69.9,108.38Z"/><path class="cls-1" d="M70.37,114.93H62.54a10.59,10.59,0,0,1-1.54-.12,3.3,3.3,0,0,1-3-3.55,3.26,3.26,0,0,1,3.39-3q3,0,6,0H78.18a3.3,3.3,0,0,1,3.6,3.07c.13,2-1.06,3.3-3.2,3.58a8.64,8.64,0,0,1-1.22.07Zm-5.47-6.38H61.4a2.92,2.92,0,0,0-3.06,2.73,3,3,0,0,0,2.7,3.18,10.1,10.1,0,0,0,1.5.11H77.36a8,8,0,0,0,1.18-.07c1.94-.25,3-1.46,2.9-3.22a3,3,0,0,0-3.26-2.75H64.9Z"/><path class="cls-1" d="M82.24,74.48a3.13,3.13,0,0,1-2.44-5.15c2.43-2.55,4.93-5,7.47-7.48a3.16,3.16,0,0,1,4.37,4.54c-2.4,2.48-4.86,4.9-7.3,7.33A2.85,2.85,0,0,1,82.24,74.48Z"/><path class="cls-1" d="M82.25,74.65h0a3.3,3.3,0,0,1-2.56-5.44c2.43-2.54,4.94-5.06,7.47-7.48a3.25,3.25,0,0,1,4.5.19,3.31,3.31,0,0,1,.11,4.59c-1.91,2-3.9,3.95-5.82,5.86l-1.48,1.47A3,3,0,0,1,82.25,74.65Zm0-.34h0a2.65,2.65,0,0,0,2-.71l1.48-1.47c1.92-1.91,3.91-3.88,5.82-5.86A3,3,0,0,0,87.39,62c-2.53,2.42-5,4.94-7.46,7.47a3,3,0,0,0,2.31,4.87Z"/><path class="cls-1" d="M53.14,140.24a3.24,3.24,0,0,1,3.55,4.4c-.58,1.39-2,2.14-4,2a3.18,3.18,0,0,1-3.13-2.69,3.09,3.09,0,0,1,1.67-3.35A3.7,3.7,0,0,1,53.14,140.24Z"/><path class="cls-1" d="M53.2,146.82l-.52,0A3.36,3.36,0,0,1,49.41,144a3.25,3.25,0,0,1,1.75-3.54,3.62,3.62,0,0,1,1.83-.36h.14a3.53,3.53,0,0,1,3.31,1.35,3.44,3.44,0,0,1,.41,3.29A3.68,3.68,0,0,1,53.2,146.82Zm.36-6.43-.4,0H53a3.29,3.29,0,0,0-1.67.32,2.91,2.91,0,0,0-1.59,3.16,3,3,0,0,0,3,2.56c1.89.16,3.26-.53,3.82-1.87a3,3,0,0,0-3-4.19Z"/><path class="cls-1" d="M39,140.25a3.18,3.18,0,0,1,3.26,1.62,3.12,3.12,0,0,1-.12,3.31c-.88,1.42-3.82,1.94-5.44.93a3.15,3.15,0,0,1-1-4.3A3.26,3.26,0,0,1,39,140.25Z"/><path class="cls-1" d="M38.82,146.81a4.17,4.17,0,0,1-2.19-.55,3.32,3.32,0,0,1-1.06-4.54A3.36,3.36,0,0,1,39,140.08a3.33,3.33,0,0,1,3.41,1.71,3.25,3.25,0,0,1-.13,3.48A4.14,4.14,0,0,1,38.82,146.81Zm-.23-6.41a3,3,0,0,0-2.73,1.49,3,3,0,0,0,1,4.08c1.55.95,4.37.48,5.2-.88a3,3,0,0,0,.12-3.14,3,3,0,0,0-3.1-1.53h0Z"/><path class="cls-1" d="M46.23,114.75c-2.19,0-3.48-.94-3.86-2.63a3,3,0,0,1,1.83-3.46,4.92,4.92,0,0,1,3.82.07,3.09,3.09,0,0,1,1.72,3.14,3.16,3.16,0,0,1-2.35,2.7C46.94,114.68,46.46,114.71,46.23,114.75Z"/><path class="cls-1" d="M46.24,114.92h0c-2.23,0-3.62-1-4-2.77a3.21,3.21,0,0,1,1.94-3.65,5.08,5.08,0,0,1,3.94.07,3.25,3.25,0,0,1,1.83,3.31,3.35,3.35,0,0,1-2.47,2.86,8.32,8.32,0,0,1-.95.15l-.24,0Zm-.2-6.44a4.85,4.85,0,0,0-1.78.34,2.86,2.86,0,0,0-1.72,3.26c.36,1.65,1.6,2.49,3.67,2.5l.24,0a7,7,0,0,0,.9-.15,3,3,0,0,0,2.22-2.55,2.91,2.91,0,0,0-1.62-3A4.78,4.78,0,0,0,46,108.48Z"/><path class="cls-1" d="M31.87,108.39a3.12,3.12,0,0,1,3.19,1.53,3.07,3.07,0,0,1-.05,3.31c-.9,1.57-4,2-5.67.85a3.19,3.19,0,0,1-.47-4.64A3.32,3.32,0,0,1,31.87,108.39Z"/><path class="cls-1" d="M31.68,114.92a4.2,4.2,0,0,1-2.44-.7A3.11,3.11,0,0,1,28,112a3.36,3.36,0,0,1,3.92-3.81,3.35,3.35,0,0,1,3.29,5.1,3.49,3.49,0,0,1-2.33,1.48A5.69,5.69,0,0,1,31.68,114.92Zm-.2-6.37a3,3,0,0,0-2.48,1,3.21,3.21,0,0,0-.72,2.44,2.87,2.87,0,0,0,1.16,2,4.3,4.3,0,0,0,3.31.51,3.07,3.07,0,0,0,2.11-1.32,2.91,2.91,0,0,0,.06-3.13,3,3,0,0,0-3-1.45h-.41Z"/><text class="cls-3" transform="translate(73.09 263.08)">Rápida <tspan x="-37.49" y="25">recuperación</tspan></text></svg>