<svg id="Capa_1" data-name="Capa 1" xmlns="http://www.w3.org/2000/svg" viewBox="0 0 259.02 333.23"><defs><style>.cls-1{fill:#009845;}.cls-2{fill:#c6c6c6;}.cls-3{font-size:23px;fill:#3c3c3b;font-family:CenturyGothic-Bold, Century Gothic;font-weight:700;letter-spacing:0.02em;}</style></defs><path class="cls-1" d="M198.55,167.49a54,54,0,0,1-5.66-.27c-3.77-.39-5.58-2.11-6.26-5.94-.27-1.54-.56-3.19-.72-4.88a4.11,4.11,0,0,0-.37-.24c-1.67-1-2.36-.72-3.38.37a11.42,11.42,0,0,1-2,1.65l-.39.28a7,7,0,0,1-9.29-.7q-4.5-4.47-9-9a6.7,6.7,0,0,1-.77-9.21c1.07-1.51,2.06-2.84,3-4a12.11,12.11,0,0,1-.9-2.27l-.23,0c-1.89-.2-3.75-.53-5.16-.79-3.46-.65-5.4-2.88-5.46-6.29-.07-4.62-.08-9.31,0-13.93a6.31,6.31,0,0,1,5.5-6.32c1.83-.35,3.63-.62,5.35-.81h0a15.48,15.48,0,0,1,.9-2.21c-1-1.3-2.15-2.8-3.19-4.37a6.45,6.45,0,0,1,.83-8.63c3.6-3.65,6.55-6.6,9.3-9.28s5.81-2.89,9-.7c.83.57,1.64,1.18,2.45,1.79.49.38,1,.75,1.48,1.11a2.18,2.18,0,0,0,1.27-.18,2.11,2.11,0,0,0,1.08-.81L186,81c.2-1.42.4-2.89.67-4.36a6.24,6.24,0,0,1,6.37-5.42c5.11,0,9.67,0,13.93,0a6.19,6.19,0,0,1,6.26,5.31c.4,2.15.64,3.81.79,5.39,0,.06,0,.1,0,.12h0s.15.11.46.29c1.48.88,2.22.78,3.41-.47a14.08,14.08,0,0,1,2.48-2l.15-.09a6.62,6.62,0,0,1,8.81.7c2.81,2.72,5.8,5.72,9.43,9.45a6.65,6.65,0,0,1,.57,8.74c-.59.84-1.2,1.65-1.81,2.47-.41.55-.83,1.1-1.23,1.65a3.38,3.38,0,0,0,.89,2.28c1.36.24,2.72.43,4.15.62l.93.13a6.31,6.31,0,0,1,5.76,6.12,98.41,98.41,0,0,1-.09,14.83,6.16,6.16,0,0,1-5.53,5.7l-1.85.31-1.94.32c-1.67.26-2.21.7-2.53,2.27l.08.1,1,1.37c.67.87,1.36,1.77,2,2.71,2.22,3.18,2,6.44-.74,9.18-1.89,1.93-3.81,3.84-5.72,5.75l-3.25,3.25a6.79,6.79,0,0,1-4.94,2.11,6.3,6.3,0,0,1-4.05-1.27l-.76-.53a12.77,12.77,0,0,1-2.2-1.74c-.86-.88-1.32-1.13-2.84-.27a2.83,2.83,0,0,0-.71.48s0,.07,0,.21a40.7,40.7,0,0,1-.72,5l-.06.31a6.13,6.13,0,0,1-5.91,5.16l-1.79.09C203.24,167.38,200.91,167.49,198.55,167.49Zm-6-6.14a4.15,4.15,0,0,0,1,.18,78.31,78.31,0,0,0,11.77,0l1.81-.09c.35,0,.46-.07.53-.49l.06-.31a36.85,36.85,0,0,0,.64-4.29,6.17,6.17,0,0,1,3.62-5.3c4.57-2.59,7.84-.73,9.78,1.28a8.86,8.86,0,0,0,1.27,1c.33.22.67.45,1,.69s.32.15.36.14h.24a1.06,1.06,0,0,0,.91-.43l3.26-3.26c1.91-1.9,3.81-3.8,5.69-5.72.71-.71.79-.94.12-1.89s-1.22-1.68-1.85-2.5l-1.09-1.43a5.17,5.17,0,0,1-1.19-4.12c.73-4.27,3.14-6.67,7.36-7.33l1.86-.31,1.94-.32c.66-.1.67-.22.71-.59a93.41,93.41,0,0,0,.07-14c0-.42,0-.65-.83-.76l-.93-.12c-1.47-.21-3-.42-4.51-.69a6.84,6.84,0,0,1-4.81-4.47c-1-2.49-.87-5,.35-6.67.45-.62.9-1.23,1.36-1.84.57-.76,1.15-1.52,1.7-2.31s.22-1.26,0-1.47c-3.58-3.69-6.54-6.65-9.3-9.33-.51-.49-.71-.68-1.68,0l-.15.1a9,9,0,0,0-1.49,1.11c-3,3.2-6.67,3.7-10.47,1.45a6,6,0,0,1-3.25-4.81c-.13-1.4-.35-2.91-.72-4.88-.1-.57-.21-.62-.72-.63-4.21-.06-8.71-.06-13.77,0-.56,0-.67,0-.81.74-.25,1.34-.43,2.68-.63,4.1l-.13.91a7,7,0,0,1-4.46,5.22,7,7,0,0,1-6.93-.45q-.78-.57-1.56-1.17c-.74-.56-1.48-1.12-2.24-1.65a2.18,2.18,0,0,0-.95-.47h0a2.11,2.11,0,0,0-.77.57c-2.72,2.65-5.65,5.57-9.21,9.2-.64.65-.61.76-.16,1.45,1,1.46,2.09,2.92,3.06,4.18a5.09,5.09,0,0,1,.58,5.73,9.26,9.26,0,0,0-.67,1.64,5.34,5.34,0,0,1-4.81,3.88c-1.57.17-3.22.42-4.91.74-.84.16-.84.4-.85.76-.05,4.57,0,9.21,0,13.78a1.46,1.46,0,0,0,.07.54h0a2.61,2.61,0,0,0,.71.21c1.31.25,3,.55,4.71.73a5.42,5.42,0,0,1,5.14,4.16,6.23,6.23,0,0,0,.55,1.34,5.18,5.18,0,0,1-.61,6c-.91,1.13-1.86,2.4-2.9,3.86-.59.85-.57,1.12.16,1.86q4.47,4.5,9,8.95a1.28,1.28,0,0,0,1.89.13l.46-.33a7.27,7.27,0,0,0,1.08-.85c3-3.23,6.72-3.71,10.56-1.38a5.75,5.75,0,0,1,3.08,4.48c.14,1.52.41,3.07.66,4.53A4.93,4.93,0,0,0,192.54,161.35ZM163,105.07Z"/><path class="cls-1" d="M96.51,114.64c-.34,9.58-5.18,19.19-15,26.16a2.12,2.12,0,0,0-1.08,2c.06,1.65,0,3.31,0,5A7.59,7.59,0,0,1,78,153.57c-.5.46-.46.77-.22,1.33,1.76,4.12,1.22,10.09-3.88,12-.65.25-.73.8-.84,1.35a11.37,11.37,0,0,1-9.63,9.29,11.51,11.51,0,0,1-13-9.27,1.86,1.86,0,0,0-1.23-1.58,7.08,7.08,0,0,1-4.36-6.57,9.29,9.29,0,0,1,.91-5.41.75.75,0,0,0-.16-1.07c-2.25-1.87-2.62-4.43-2.64-7.12,0-1.38-.06-2.75,0-4.12a1.72,1.72,0,0,0-.86-1.69,33.56,33.56,0,0,1-13.73-19.6c-3-12-.45-22.78,7.75-32C43.34,81,52.63,77.21,63.5,77.63a33.37,33.37,0,0,1,20.75,8.26C92.05,92.56,96.49,102.07,96.51,114.64Zm-34.7,23c5,0,9.93,0,14.89,0A3.53,3.53,0,0,0,79,137c9.48-7,13.92-16.35,12.73-28C90,92,74,79.93,57.07,82.56a30,30,0,0,0-25.22,27.8c-.54,11.22,3.87,20.16,13,26.73a3.27,3.27,0,0,0,2,.61C51.87,137.68,56.84,137.69,61.81,137.69Zm-.15,4.66c-4.27,0-8.55,0-12.83,0-.92,0-1.33.26-1.28,1.24.06,1.25,0,2.5,0,3.75,0,2.48,1.17,3.65,3.63,3.66h8.23c4.36,0,8.71,0,13.07,0a3,3,0,0,0,3.32-3.32c0-1.29,0-2.58,0-3.87.07-1.11-.35-1.48-1.46-1.46C70.14,142.38,65.9,142.35,61.66,142.35Zm0,20.35h0c3.19,0,6.37,0,9.56,0A2.56,2.56,0,0,0,74,160.25a8.3,8.3,0,0,0,0-1.93,2.6,2.6,0,0,0-2.93-2.67c-2.94,0-5.88,0-8.82,0-3.35,0-6.7,0-10,0a2.5,2.5,0,0,0-2.77,2.77c0,.41,0,.81,0,1.21,0,2.12.91,3,3,3.05C55.52,162.71,58.59,162.7,61.65,162.7Zm.05,4.65c-1.89,0-3.78,0-5.67,0-.88,0-1.18.2-.87,1.11a7,7,0,0,0,13.12,0c.27-.81.06-1.1-.79-1.08C65.56,167.37,63.63,167.35,61.7,167.35Z"/><path class="cls-1" d="M61.68,177.86a11.69,11.69,0,0,1-6.76-2.21,11.44,11.44,0,0,1-4.66-7.32,1.73,1.73,0,0,0-1.15-1.48,7.21,7.21,0,0,1-4.45-6.69,9.37,9.37,0,0,1,.94-5.49.61.61,0,0,0-.14-.89c-2.32-1.94-2.66-4.62-2.69-7.23,0-.29,0-.57,0-.85,0-1.08,0-2.19,0-3.28a1.58,1.58,0,0,0-.8-1.56,33.8,33.8,0,0,1-13.79-19.69c-3-12.08-.42-22.9,7.78-32.14,7.17-8.09,16.41-12,27.51-11.54a33.44,33.44,0,0,1,20.84,8.3c8.15,6.95,12.29,16.66,12.31,28.85h0c-.37,10.3-5.71,19.63-15,26.27a1.94,1.94,0,0,0-1,1.85c0,1,0,2.08,0,3.1,0,.62,0,1.25,0,1.87a7.72,7.72,0,0,1-2.55,5.93c-.42.4-.41.62-.18,1.18a10.82,10.82,0,0,1,.21,8.22,7.19,7.19,0,0,1-4.17,4c-.54.21-.63.65-.74,1.16l0,.09a11.51,11.51,0,0,1-9.73,9.4A10.37,10.37,0,0,1,61.68,177.86Zm.18-100.12A33,33,0,0,0,36.2,89.22c-8.13,9.17-10.73,19.89-7.71,31.88a33.47,33.47,0,0,0,13.67,19.52,1.86,1.86,0,0,1,.92,1.82c-.06,1.08,0,2.18,0,3.25,0,.29,0,.57,0,.86,0,2.54.35,5.15,2.59,7a.89.89,0,0,1,.2,1.25,9.06,9.06,0,0,0-.9,5.33,6.93,6.93,0,0,0,4.28,6.45,2,2,0,0,1,1.31,1.69,11.09,11.09,0,0,0,4.55,7.13,11.36,11.36,0,0,0,17.81-7.16v-.09c.12-.54.24-1.1.92-1.36a7,7,0,0,0,4-3.84,10.63,10.63,0,0,0-.21-8,1.08,1.08,0,0,1,.25-1.49,7.46,7.46,0,0,0,2.45-5.73c0-.62,0-1.25,0-1.87,0-1,0-2.06,0-3.09a2.28,2.28,0,0,1,1.13-2.1c9.26-6.58,14.56-15.83,14.92-26,0-12.1-4.13-21.74-12.21-28.64a33.12,33.12,0,0,0-20.66-8.22C62.94,77.75,62.4,77.74,61.86,77.74Zm-.15,95.48A7.08,7.08,0,0,1,55,168.49c-.16-.48-.16-.79,0-1a1.15,1.15,0,0,1,1-.29c1.33,0,2.69,0,4,0h3.14c1.42,0,2.88,0,4.32,0h.05c.46,0,.73.09.88.29s.15.52,0,1a7.1,7.1,0,0,1-6.7,4.74Zm-5.78-5.74c-.38,0-.6.06-.69.18s-.07.37,0,.74a6.8,6.8,0,0,0,6.42,4.53h0a6.79,6.79,0,0,0,6.43-4.54c.12-.37.13-.6,0-.73s-.32-.17-.69-.17c-1.45,0-2.91,0-4.33,0H60c-1.31,0-2.67,0-4,0Zm.35-4.63H52.46c-2.16,0-3.13-1-3.15-3.2,0-.39,0-.81,0-1.21a2.65,2.65,0,0,1,2.92-2.92c2.51,0,5.06,0,7.53,0H64.3c2.23,0,4.53,0,6.8,0a2.72,2.72,0,0,1,3.06,2.8,8,8,0,0,1,0,2,2.68,2.68,0,0,1-2.92,2.56c-2.25,0-4.52,0-6.73,0h-8.2Zm1-7.07-5,0a2.37,2.37,0,0,0-2.63,2.64c0,.4,0,.81,0,1.2,0,2.06.85,2.9,2.87,2.91h12c2.21,0,4.49,0,6.72,0a2.4,2.4,0,0,0,2.64-2.31,8,8,0,0,0,0-1.9,2.44,2.44,0,0,0-2.79-2.53c-2.26,0-4.56,0-6.79,0h-7Zm9.38-4.64H51.19c-2.53,0-3.76-1.25-3.77-3.8,0-.43,0-.86,0-1.29,0-.81,0-1.64,0-2.45a1.39,1.39,0,0,1,.28-1.06,1.49,1.49,0,0,1,1.12-.34h0c3.14,0,6.33,0,9.41,0H65.3c3,0,6,0,9.07,0h.06A1.31,1.31,0,0,1,76,143.8c0,.79,0,1.61,0,2.39,0,.49,0,1,0,1.48a3.15,3.15,0,0,1-3.46,3.45Zm-6.83-.29H72.49a2.91,2.91,0,0,0,3.18-3.18c0-.49,0-1,0-1.46,0-.79,0-1.61,0-2.42a1.3,1.3,0,0,0-.23-1,1.36,1.36,0,0,0-1-.29h-.05c-3,0-6.11,0-9.09,0H54.84l-6,0h0a1.21,1.21,0,0,0-.91.25,1.08,1.08,0,0,0-.2.84c0,.82,0,1.66,0,2.47,0,.43,0,.86,0,1.29,0,2.39,1.12,3.51,3.49,3.52h8.63Zm16.9-13h0c-3.72,0-7.51,0-11.17,0H46.89a3.46,3.46,0,0,1-2.1-.63c-9.22-6.62-13.62-15.66-13.09-26.85A29.53,29.53,0,0,1,39.44,92a30.18,30.18,0,0,1,17.61-9.54,30.59,30.59,0,0,1,23.3,6A29.46,29.46,0,0,1,91.83,109C93,120.55,88.71,130,79,137.12A3.69,3.69,0,0,1,76.72,137.85Zm-7.49-.3h7.49a3.42,3.42,0,0,0,2.15-.67c9.58-7,13.84-16.42,12.68-27.89A29.21,29.21,0,0,0,80.17,88.67a30.3,30.3,0,0,0-23.08-6c-13.66,2.13-24.45,14-25.1,27.67-.53,11.09,3.83,20,13,26.6a3.08,3.08,0,0,0,1.93.59h0c3.84,0,7.75,0,11.53,0H69.23Z"/><path class="cls-1" d="M91.07,84.54a2,2,0,0,1-1.95-1.18,2.18,2.18,0,0,1,.21-2.51,54.51,54.51,0,0,1,5.23-5.19,2.2,2.2,0,0,1,3.07.27,2.23,2.23,0,0,1,0,3c-1.66,1.76-3.4,3.44-5.13,5.13A2,2,0,0,1,91.07,84.54Z"/><path class="cls-1" d="M91.15,84.69h-.08A2.19,2.19,0,0,1,89,83.42a2.3,2.3,0,0,1,.23-2.67,54.42,54.42,0,0,1,5.25-5.2A2.4,2.4,0,0,1,97.76,79c-1.44,1.53-3,3-4.46,4.48l-.67.66A2,2,0,0,1,91.15,84.69Zm4.79-9.39a2,2,0,0,0-1.28.47A52.84,52.84,0,0,0,89.44,81a2.06,2.06,0,0,0-.19,2.35,1.9,1.9,0,0,0,1.83,1.1h.07A1.77,1.77,0,0,0,92.43,84l.67-.66c1.48-1.44,3-2.94,4.46-4.46a2.08,2.08,0,0,0,0-2.8A2.13,2.13,0,0,0,95.94,75.3Z"/><path class="cls-1" d="M97.92,146a2.26,2.26,0,0,1-1.24,1.93,2,2,0,0,1-2.39-.18c-1.81-1.71-3.59-3.47-5.3-5.29a2.24,2.24,0,0,1,.14-2.89,2.29,2.29,0,0,1,3.09-.25c1.8,1.66,3.51,3.44,5.22,5.2A2.1,2.1,0,0,1,97.92,146Z"/><path class="cls-1" d="M95.53,148.38a1.9,1.9,0,0,1-1.34-.53c-2-1.86-3.71-3.59-5.31-5.29a2.39,2.39,0,0,1,.15-3.09,2.44,2.44,0,0,1,3.29-.26c1.64,1.52,3.23,3.15,4.76,4.73l.46.48a2.31,2.31,0,0,1,.52,1.58h0a2.41,2.41,0,0,1-1.32,2.05A2.58,2.58,0,0,1,95.53,148.38ZM90.9,139a2.34,2.34,0,0,0-1.66.7,2.08,2.08,0,0,0-.15,2.69c1.59,1.7,3.32,3.42,5.3,5.28a1.84,1.84,0,0,0,2.22.16,2.1,2.1,0,0,0,1.17-1.8,2,2,0,0,0-.44-1.38l-.46-.48c-1.54-1.57-3.12-3.2-4.76-4.72A1.78,1.78,0,0,0,90.9,139Z"/><path class="cls-1" d="M16.59,109.08c1.09,0,2.17,0,3.26,0a2.28,2.28,0,0,1,2.39,2.09,2.25,2.25,0,0,1-2.18,2.42,33.89,33.89,0,0,1-7.12,0,2.25,2.25,0,0,1,.26-4.49C14.33,109.05,15.46,109.08,16.59,109.08Z"/><path class="cls-1" d="M16.57,113.91a33.72,33.72,0,0,1-3.64-.2,2.39,2.39,0,0,1,.26-4.77c.78,0,1.57,0,2.33,0h2c.75,0,1.53,0,2.3,0a2.42,2.42,0,0,1,2.52,2.22,2.36,2.36,0,0,1-2.3,2.57A34.53,34.53,0,0,1,16.57,113.91Zm-2.05-4.7c-.44,0-.88,0-1.32,0a2,2,0,0,0-2.19,2,2.06,2.06,0,0,0,2,2.22,34.28,34.28,0,0,0,7.09,0,2.11,2.11,0,0,0,2.05-2.27,2.13,2.13,0,0,0-2.25-2c-.76,0-1.54,0-2.29,0h-3Z"/><path class="cls-1" d="M34.26,140.6a2.58,2.58,0,0,1-.79,2c-1.58,1.56-3.14,3.13-4.76,4.64a2.15,2.15,0,0,1-3.14,0,2.24,2.24,0,0,1-.05-3.17c1.61-1.69,3.28-3.33,5-4.95a2.14,2.14,0,0,1,2.48-.37A2.18,2.18,0,0,1,34.26,140.6Z"/><path class="cls-1" d="M27.14,148.07a2.32,2.32,0,0,1-1.67-.73,2.39,2.39,0,0,1,0-3.37c1.42-1.49,3-3.06,5-5a2.28,2.28,0,0,1,2.64-.39,2.33,2.33,0,0,1,1.38,2h0a2.74,2.74,0,0,1-.83,2.12l-.69.68c-1.32,1.31-2.68,2.67-4.07,4A2.44,2.44,0,0,1,27.14,148.07Zm4.79-9.41a1.93,1.93,0,0,0-1.35.56c-2,1.89-3.54,3.46-4.95,4.95a2.09,2.09,0,0,0,.05,3,2,2,0,0,0,2.94,0c1.38-1.29,2.74-2.65,4.06-4l.69-.68a2.42,2.42,0,0,0,.74-1.91,2,2,0,0,0-1.21-1.72A2.37,2.37,0,0,0,31.93,138.66Z"/><path class="cls-1" d="M64,66.64c0,1,0,2.09,0,3.14a2.29,2.29,0,1,1-4.57.24,35.46,35.46,0,0,1,0-5.55c0-.52.08-1,.13-1.57a2.25,2.25,0,0,1,2.22-2,2.08,2.08,0,0,1,2.19,2c.07,1.25,0,2.5,0,3.75Z"/><path class="cls-1" d="M61.75,72.4A2.47,2.47,0,0,1,59.32,70a36.76,36.76,0,0,1,0-5.57c0-.62.09-1.12.14-1.57a2.38,2.38,0,0,1,2.36-2.11h.06a2.22,2.22,0,0,1,2.27,2.1c.06.87,0,1.76,0,2.62,0,.33,0,.66,0,1l0,.14v1c0,.72,0,1.46,0,2.19a2.47,2.47,0,0,1-2.28,2.61Zm.12-11.34h0a2.11,2.11,0,0,0-2.08,1.86c-.05.45-.1.95-.14,1.56a36.34,36.34,0,0,0,0,5.53,2.14,2.14,0,1,0,4.28-.23c0-.73,0-1.47,0-2.19v-.81h0v-.14c0-.38,0-.76,0-1.14,0-.86,0-1.74,0-2.6A1.93,1.93,0,0,0,61.87,61.06Z"/><path class="cls-1" d="M27.33,74.91a2.55,2.55,0,0,1,1.94.8c1.51,1.51,3,3,4.52,4.54A2.33,2.33,0,0,1,34,83.51a2.26,2.26,0,0,1-3.26.12C29,82,27.28,80.24,25.63,78.49a1.94,1.94,0,0,1-.22-2.27A2.27,2.27,0,0,1,27.33,74.91Z"/><path class="cls-1" d="M32.28,84.41a2.45,2.45,0,0,1-1.66-.67c-1.81-1.7-3.51-3.48-5.1-5.15a2.07,2.07,0,0,1-.24-2.43,2.4,2.4,0,0,1,2-1.39h.05a2.7,2.7,0,0,1,2,.84l.88.88c1.2,1.19,2.44,2.42,3.64,3.66a2.43,2.43,0,0,1-1.52,4.26Zm-4.94-9.35a2.11,2.11,0,0,0-1.8,1.22,1.84,1.84,0,0,0,.19,2.11c1.59,1.67,3.29,3.45,5.09,5.14a2.17,2.17,0,0,0,1.46.6h.08a2.14,2.14,0,0,0,1.32-3.77c-1.19-1.24-2.43-2.47-3.63-3.66l-.88-.88a2.43,2.43,0,0,0-1.8-.75Z"/><path class="cls-1" d="M36.59,112c.55-9.55,4.8-16.94,13.23-21.79A2.69,2.69,0,0,1,52.7,90c1.63,1,1.42,3.09-.43,4.08a21.47,21.47,0,0,0-7.41,6.64,20.51,20.51,0,0,0,.22,23.42A27.51,27.51,0,0,0,47.5,127a2.39,2.39,0,0,1,.24,3.55c-.94,1-2.36.85-3.54-.33a24.61,24.61,0,0,1-7.45-16.36C36.72,113.24,36.65,112.63,36.59,112Z"/><path class="cls-1" d="M46.25,131.32a3.15,3.15,0,0,1-2.15-1,24.87,24.87,0,0,1-7.49-16.46c0-.41-.06-.83-.11-1.26,0-.21,0-.41,0-.63v0c.56-9.78,5-17.15,13.3-21.91a2.8,2.8,0,0,1,3-.17,2.24,2.24,0,0,1,1.17,2,2.8,2.8,0,0,1-1.6,2.33,21,21,0,0,0-7.36,6.6A20.4,20.4,0,0,0,45.19,124a26.12,26.12,0,0,0,2.42,2.84c1.18,1.21,1.28,2.69.23,3.75a2.17,2.17,0,0,1-1.58.69ZM36.73,112l.06.61c0,.44.08.85.11,1.27a24.56,24.56,0,0,0,7.4,16.27,2.84,2.84,0,0,0,2,.93h0a1.92,1.92,0,0,0,1.38-.6,2.27,2.27,0,0,0-.24-3.35A26.62,26.62,0,0,1,45,124.21a20.7,20.7,0,0,1-.22-23.59,21.48,21.48,0,0,1,7.47-6.69,2.51,2.51,0,0,0,1.45-2.07,2,2,0,0,0-1-1.76,2.5,2.5,0,0,0-2.72.18C41.72,95,37.29,102.28,36.73,112Z"/><path class="cls-1" d="M60.22,91.76c-2,0-3.11-1-2.83-2.66.22-1.24,1-1.8,2.82-1.91,1.62-.1,2.6.41,2.95,1.53C63.71,90.46,62.49,91.71,60.22,91.76Z"/><path class="cls-1" d="M60.08,91.91A3,3,0,0,1,57.7,91a2.32,2.32,0,0,1-.45-2c.22-1.31,1.11-1.92,3-2,1.67-.1,2.72.44,3.1,1.63a2.27,2.27,0,0,1-.24,2,3.47,3.47,0,0,1-2.84,1.17h-.14Zm.52-4.59h-.38c-1.73.11-2.48.61-2.69,1.8a2.05,2.05,0,0,0,.38,1.72,2.8,2.8,0,0,0,2.17.77h.13a3.16,3.16,0,0,0,2.61-1.06A2,2,0,0,0,63,88.77C62.72,87.8,61.93,87.32,60.6,87.32Z"/><path class="cls-1" d="M200.2,141.42h0A22.26,22.26,0,0,1,178,119.31a21.94,21.94,0,0,1,6.45-15.43,22.33,22.33,0,0,1,15.63-6.66h0a22.1,22.1,0,0,1,0,44.2Zm0-38.48h0a16.54,16.54,0,0,0-11.57,5,16.19,16.19,0,0,0-4.8,11.36,16.54,16.54,0,0,0,16.43,16.42h0a16.38,16.38,0,0,0,0-32.75Z"/><path class="cls-2" d="M118.71,145.07a2.87,2.87,0,0,1-2-4.89l20.54-20.54L116,98.46a2.86,2.86,0,0,1,4-4l23.22,23.21a2.88,2.88,0,0,1,0,4l-22.57,22.56A2.83,2.83,0,0,1,118.71,145.07Z"/><path class="cls-2" d="M141.27,122.5H108.05a2.86,2.86,0,0,1,0-5.72h33.22a2.86,2.86,0,0,1,0,5.72Z"/><text class="cls-3" transform="translate(103.83 263.08)">Fácil<tspan x="-71.3" y="25" xml:space="preserve"> implementación</tspan></text></svg>