<svg id="Capa_1" data-name="Capa 1" xmlns="http://www.w3.org/2000/svg" viewBox="0 0 170.08 170.08"><defs><style>.cls-1,.cls-2{fill:none;stroke-linecap:round;stroke-linejoin:round;stroke-width:4px;}.cls-1{stroke:#2d2a26;}.cls-2{stroke:#009845;}</style></defs><polyline class="cls-1" points="112.59 81.2 142.84 90.1 85.24 106.82 27.24 91.44"/><line class="cls-1" x1="27.24" y1="90.12" x2="57.18" y2="81.36"/><polyline class="cls-1" points="115.4 98.07 142.84 106.14 85.24 122.86 27.24 107.48"/><line class="cls-1" x1="27.24" y1="106.15" x2="53.62" y2="98.44"/><polyline class="cls-1" points="115.4 114.1 142.84 122.18 85.24 138.9 27.24 123.52"/><line class="cls-1" x1="27.24" y1="122.19" x2="53.05" y2="114.64"/><rect class="cls-2" x="58.06" y="48.55" width="53.96" height="40.26" rx="5.67"/><path class="cls-2" d="M66.41,48.53h0A17.35,17.35,0,0,1,83.75,31.18h2.57a17.35,17.35,0,0,1,17.35,17.34h0"/><circle class="cls-2" cx="85.68" cy="66.17" r="5.14"/><line class="cls-2" x1="85.68" y1="78.05" x2="85.68" y2="71.31"/></svg>