<svg id="Capa_1" data-name="Capa 1" xmlns="http://www.w3.org/2000/svg" viewBox="0 0 226.77 316.32"><defs><style>.cls-1,.cls-3{fill:none;stroke-linecap:round;stroke-linejoin:round;stroke-width:5px;}.cls-1{stroke:#c6c6c6;}.cls-2{fill:#009845;}.cls-3{stroke:#009845;}.cls-4{fill:#c6c6c6;}.cls-5{font-size:23px;fill:#3c3c3b;font-family:CenturyGothic-Bold, Century Gothic;font-weight:700;letter-spacing:0.02em;}</style></defs><line class="cls-1" x1="82.6" y1="134.62" x2="146" y2="134.62"/><path class="cls-2" d="M178.4,131.36v-3.18a3.08,3.08,0,1,0-6.15,0v3.16a4.89,4.89,0,0,0-1.93,3.85,5,5,0,1,0,10,0A4.87,4.87,0,0,0,178.4,131.36Z"/><rect class="cls-3" x="146" y="106.92" width="58.64" height="51.92" rx="3.32"/><path class="cls-3" d="M154,106.11V89.21a21.27,21.27,0,0,1,21.28-21.27h0a21.27,21.27,0,0,1,21.27,21.27v16.9"/><path class="cls-4" d="M54.55,131.36v-3.18a3.08,3.08,0,0,0-6.16,0v3.16a4.89,4.89,0,0,0-1.93,3.85,5,5,0,1,0,10,0A4.89,4.89,0,0,0,54.55,131.36Z"/><rect class="cls-1" x="22.14" y="106.92" width="58.64" height="51.92" rx="3.32"/><path class="cls-1" d="M30.18,106.11V89.21A21.27,21.27,0,0,1,51.46,67.94h0A21.27,21.27,0,0,1,72.73,89.21v16.9"/><text class="cls-5" transform="translate(35.64 262.57)">Seguridad de <tspan x="-3.45" y="25">punto a punto</tspan></text></svg>