<svg id="Capa_1" data-name="Capa 1" xmlns="http://www.w3.org/2000/svg" viewBox="0 0 284.27 316.32"><defs><style>.cls-1{fill:#c6c6c6;}.cls-2{fill:#009845;stroke:#009845;stroke-miterlimit:10;stroke-width:0.5px;}.cls-3{fill:none;stroke:#c6c6c6;stroke-linecap:round;stroke-linejoin:round;stroke-width:6px;}.cls-4{font-size:23px;fill:#3c3c3b;font-family:CenturyGothic-Bold, Century Gothic;font-weight:700;letter-spacing:0.02em;}</style></defs><path class="cls-1" d="M180.71,109.3v38c0,1.13,0,1.12-1.12,1.12q-12.57,0-25.14,0a8,8,0,0,0-8.12,8.16v8.56c0,5.62,0,11.23,0,16.85,0,.64-.2.85-.83.82-1,0-2.07,0-3.11,0H104.93l-17.2,0c-2.14,0-4.28,0-6.42,0a1.82,1.82,0,0,1-1.9-1.86c0-.32,0-.65,0-1V54.09c0-.32,0-.64,0-1a1.91,1.91,0,0,1,.36-1,2,2,0,0,1,2-.82h62.88l-.15-2.91c-.06-1.08-.12-2.16-.17-3.24h-13c-16.62,0-33.24,0-49.86,0A8.14,8.14,0,0,0,73.33,52a11.8,11.8,0,0,0-.08,1.79v63.32q0,31.77,0,63.54a8.08,8.08,0,0,0,4.44,7.55,9.12,9.12,0,0,0,4.5.84h65.73a18.91,18.91,0,0,0,2-.07,2.93,2.93,0,0,0,1.74-.91c1-1,1.93-1.91,2.86-2.9.52-.57,1.28-.87,1.7-1.48a12.69,12.69,0,0,1,1.45-1.65l11.91-11.9,11.55-11.58c1.59-1.6,3.18-3.2,4.79-4.78a3.22,3.22,0,0,0,1-2.42V108.38A38.85,38.85,0,0,1,180.71,109.3Zm-5,45.85q-2.62,2.65-5.26,5.29-7.64,7.63-15.28,15.27c-.84.84-1.63,1.73-2.45,2.6l-.23-.17c0-.14,0-.27,0-.4q0-10.5,0-21c0-1.48.68-2.13,2.17-2.13h20.86c.17,0,.41-.08.49.12S175.85,155,175.73,155.15Z"/><path class="cls-2" d="M156.11,46.64c.79-.64,1.5-1.25,2.23-1.82a31.89,31.89,0,0,1,22.45-7,31.31,31.31,0,0,1,18.89,7.77,31.79,31.79,0,0,1,11.22,22,32.21,32.21,0,0,1-19.1,32.29c-11.15,4.79-21.93,3.8-31.93-3.08C152,91.39,147.58,83.71,146.3,74.23A32,32,0,0,1,147,62.3a2.49,2.49,0,0,1,2.41-2.17A2.42,2.42,0,0,1,152,63.19a28.64,28.64,0,0,0-.89,7.82,28.05,28.05,0,0,0,3.39,12.38,27.4,27.4,0,0,0,39.09,9.83,26.17,26.17,0,0,0,12.18-19.17c1.3-9.92-1.94-18.32-9.58-24.85A27.36,27.36,0,0,0,161,49.12a6,6,0,0,0-1.26,1.13c1.5-.09,2.89-.22,4.28-.25a2.45,2.45,0,0,1,2.62,2.28,2.48,2.48,0,0,1-2.19,2.64c-1.71.21-3.42.31-5.13.45-1.55.12-3.09.22-4.63.35-2.26.18-3.32-.77-3.42-3-.15-3.26-.37-6.52-.51-9.78a2.4,2.4,0,0,1,1.87-2.46,2.46,2.46,0,0,1,2.76,1.27,7,7,0,0,1,.42,2.6A11.3,11.3,0,0,0,156.11,46.64Z"/><line class="cls-3" x1="94.63" y1="86.15" x2="130.06" y2="86.15"/><line class="cls-3" x1="94.63" y1="108.63" x2="155.66" y2="108.63"/><line class="cls-3" x1="94.63" y1="131.1" x2="155.66" y2="131.1"/><text class="cls-4" transform="translate(21.94 267.94)">Recupera fácilmente <tspan x="69.92" y="25">tus datos</tspan></text></svg>