<svg id="Capa_1" data-name="Capa 1" xmlns="http://www.w3.org/2000/svg" viewBox="0 0 285.61 333.23"><defs><style>.cls-1{fill:#c6c6c6;}.cls-2{fill:#009845;}.cls-3{font-size:23px;fill:#3c3c3b;font-family:CenturyGothic-Bold, Century Gothic;font-weight:700;letter-spacing:0.02em;}</style></defs><path class="cls-1" d="M71.3,129.15a5.9,5.9,0,0,1-4.21-1.52,6.11,6.11,0,0,1-1.59-4.54c.06-12.45,0-25.11,0-37.35V76.15c0-.31,0-.57,0-.78H57.45a3.42,3.42,0,0,1-3.33-2.66,4.6,4.6,0,0,1,1.69-4.78l7.26-7.25c4.41-4.41,8.83-8.82,13.2-13.26a6.2,6.2,0,0,1,4.3-2.11h0a6.1,6.1,0,0,1,4.24,2.07C89.49,52.15,94.31,57,99,61.61c1.89,1.88,3.79,3.77,5.67,5.66.42.41.82.85,1.22,1.28l.47.51a3.45,3.45,0,0,1,.76,3.37l-.18.57a3.42,3.42,0,0,1-3.25,2.36H95.58c0,.23,0,.51,0,.87v46.31c0,5-1.52,6.55-6.52,6.56H83.47c-3.91,0-8,0-11.91.05ZM64.89,68.52c5.59.06,7.49,2,7.49,7.62v9.6c0,12,0,24.36,0,36.56,3.72,0,7.49,0,11.13,0,1.75,0,3.5,0,5.25,0v-46c0-5.57,2-7.68,7.49-7.72l-2.07-2.07C89.68,62,85.06,57.4,80.56,52.8q-6.3,6.38-12.65,12.7Z"/><path class="cls-1" d="M123,124.19a4.94,4.94,0,0,1-3.57-1.62q-7.11-7.17-14.26-14.31L97.89,101a6,6,0,0,1-.84-1.1l-.36-.56A3.41,3.41,0,0,1,99.52,94h7.56l.93,0c0-.24,0-.54,0-.92V46.69c0-4.89,1.55-6.47,6.39-6.48h17.12c4.65,0,6.3,1.68,6.3,6.39V92.45c0,.47,0,1,0,1.42V94h0c1.88,0,3.76,0,5.82,0h3.13a3.42,3.42,0,0,1,2.42,5.84L131.15,118c-1.5,1.51-3,3-4.49,4.53a5,5,0,0,1-3.63,1.69ZM107.39,100.8l2.62,2.63q6.51,6.51,13,13l3.3-3.32,12.3-12.34h-.78c-4.39,0-6.61-2.22-6.81-6.63,0-.59,0-1.18,0-1.77V77.93q0-15.45,0-30.88H114.86V93C114.86,98.66,112.9,100.72,107.39,100.8Z"/><path class="cls-1" d="M199.69,186.57c-.59,0-1.18,0-1.76,0l-.31,0a16.7,16.7,0,0,1-2.91-.34c-.89-.16-1.76-.35-2.59-.57a32.28,32.28,0,0,1-6.81-2.61c-10.79-5.86-16.73-15.18-17.21-26.93-.28-7.08-.22-14.24-.16-21.16q0-4.37.05-8.73a6.14,6.14,0,0,1,1.52-4.56,6.22,6.22,0,0,1,4.64-1.47h.44c3.88,0,7.55.07,11-.84a24.79,24.79,0,0,0,9.79-5.4l.23-.22a6.53,6.53,0,0,1,2.62-1.68,5.51,5.51,0,0,1,5.44,1.5c.73.66,1.48,1.28,2.22,1.83a25.15,25.15,0,0,0,4.75,2.82,22.63,22.63,0,0,0,4.38,1.42,44.52,44.52,0,0,0,9.48.58h.65c1.27,0,3.38,0,4.9,1.48a6.31,6.31,0,0,1,1.52,4.81q0,14,0,28.07a32.24,32.24,0,0,1-2.23,11.86,31.69,31.69,0,0,1-15.77,17A32.07,32.07,0,0,1,199.69,186.57ZM174.83,127q0,4-.05,8c-.06,6.84-.12,13.92.16,20.82.37,9.35,5,16.49,13.63,21.2a23.89,23.89,0,0,0,5.35,2,20.37,20.37,0,0,0,2,.44l.26.06a10.77,10.77,0,0,0,1.78.18l.32,0A25.07,25.07,0,0,0,223,163.85a25.6,25.6,0,0,0,1.75-9.37q0-13.75,0-27.51h-.18a49.38,49.38,0,0,1-11-.72,28.84,28.84,0,0,1-5.75-1.87,31.77,31.77,0,0,1-6.07-3.58c-.68-.51-1.37-1.07-2-1.65a31.43,31.43,0,0,1-12.43,6.75A46.53,46.53,0,0,1,174.83,127Z"/><path class="cls-2" d="M157.94,163.09H81.75a10.88,10.88,0,0,1-10.88-10.87V137.74a3.42,3.42,0,1,1,6.84,0v14.48a4,4,0,0,0,4,4h76.19a3.42,3.42,0,1,1,0,6.83Z"/><path class="cls-2" d="M156,147H74.29a3.42,3.42,0,0,1,0-6.84H156a3.42,3.42,0,0,1,0,6.84Z"/><path class="cls-2" d="M168.47,184.84H116a3.42,3.42,0,0,1-3.42-3.42v-9.36a3.42,3.42,0,0,1,3.42-3.42h17.85v-9a3.42,3.42,0,1,1,6.83,0v12.38a3.42,3.42,0,0,1-3.42,3.42H119.42V178h49.05a3.42,3.42,0,1,1,0,6.84Z"/><path class="cls-2" d="M225.34,113.93a3.42,3.42,0,0,1-3.42-3.42V63.84a4,4,0,0,0-4-4H149.69a3.42,3.42,0,1,1,0-6.84h68.24a10.84,10.84,0,0,1,10.83,10.83v46.67A3.42,3.42,0,0,1,225.34,113.93Z"/><text class="cls-3" transform="translate(20.89 263.08)">Transferencia segura <tspan x="32.2" y="25">de información</tspan></text></svg>