<svg id="Capa_1" data-name="Capa 1" xmlns="http://www.w3.org/2000/svg" viewBox="0 0 226.77 333.23"><defs><style>.cls-1{fill:#c6c6c6;}.cls-2{fill:#009845;}.cls-3{font-size:23px;fill:#3c3c3b;font-family:CenturyGothic-Bold, Century Gothic;font-weight:700;letter-spacing:0.02em;}</style></defs><path class="cls-1" d="M63.38,75.31a4.27,4.27,0,0,1-4.1-5.45.54.54,0,0,0-.18-.64q-4.68-4.47-9.35-9l-9.36-9a1.6,1.6,0,0,1-.49-1.67,1.66,1.66,0,0,1,2.73-.76l3.62,3.45,4,3.79,3.65,3.53,7.39,7.09a.76.76,0,0,0,.88.22,3.74,3.74,0,0,1,2.34,0,.46.46,0,0,0,.54-.16q3.73-4.15,7.49-8.28c1.21-1.34,2.42-2.67,3.65-4a1.65,1.65,0,1,1,2.46,2.19c-1,1.15-2.07,2.28-3.1,3.43q-4,4.41-8,8.81a.56.56,0,0,0-.13.67A4.26,4.26,0,0,1,63.38,75.31Zm0-3A1.34,1.34,0,0,0,64.73,71a1.32,1.32,0,0,0-1.37-1.31,1.32,1.32,0,1,0,0,2.64Z"/><path class="cls-1" d="M63.39,76h0a5,5,0,0,1-4.77-6.28c-2-1.91-3.92-3.77-5.87-5.63L39.92,51.79a2.25,2.25,0,0,1-.68-2.34,2.33,2.33,0,0,1,3.86-1.07l7.6,7.24c.72.68,1.44,1.37,2.15,2.07l1.5,1.45,4.09,3.92,3.31,3.18.11.09a4.45,4.45,0,0,1,2.72-.12Q68.3,62.09,72,58c1.21-1.34,2.43-2.68,3.65-4a2.33,2.33,0,1,1,3.48,3.1c-.74.83-1.48,1.64-2.22,2.46l-1.8,2L68,69.35a4.79,4.79,0,0,1-.57,4.52A4.94,4.94,0,0,1,63.39,76ZM41.53,49.1a1,1,0,0,0-.24,0,.87.87,0,0,0-.73.68.91.91,0,0,0,.3,1L53.69,63.09l5.88,5.64a1.21,1.21,0,0,1,.37,1.32,3.57,3.57,0,0,0,3.44,4.57h0a3.58,3.58,0,0,0,3.37-4.83A1.23,1.23,0,0,1,67,68.43l7.08-7.8,1.81-2c.74-.81,1.48-1.63,2.21-2.45a1,1,0,1,0-1.45-1.27q-1.83,2-3.65,4Q69.27,63,65.54,67.19a1.14,1.14,0,0,1-1.25.36,3,3,0,0,0-1.91,0,1.42,1.42,0,0,1-1.58-.37l-3.31-3.17-4.08-3.92L51.9,58.67,49.76,56.6l-7.6-7.23A.87.87,0,0,0,41.53,49.1ZM63.37,73h0a2.07,2.07,0,0,1-1.44-.61,2,2,0,0,1-.57-1.4,2,2,0,0,1,2-2h0a2,2,0,0,1,1.47,3.4A2.08,2.08,0,0,1,63.37,73Zm0-2.65h0a.65.65,0,0,0-.63.66.59.59,0,0,0,.18.42.63.63,0,0,0,.46.2h0a.68.68,0,0,0,.49-.2A.58.58,0,0,0,64,71,.63.63,0,0,0,63.37,70.38Z"/><path class="cls-1" d="M61.69,32.15c0-.6,0-1.2,0-1.8a1.68,1.68,0,0,1,1.15-1.57,1.65,1.65,0,0,1,1.83.58,1.62,1.62,0,0,1,.33,1c0,1.27.08,2.55,0,3.82a1.63,1.63,0,0,1-1.57,1.46,1.67,1.67,0,0,1-1.67-1.34,6.51,6.51,0,0,1,0-1.08v-1Z"/><path class="cls-1" d="M63.34,36.3a2.36,2.36,0,0,1-2.28-1.9,4.81,4.81,0,0,1-.06-1v-2c0-.38,0-.75,0-1.13a2.34,2.34,0,0,1,4.19-1.4,2.21,2.21,0,0,1,.48,1.39l0,.82a28.72,28.72,0,0,1,0,3.07,2.28,2.28,0,0,1-2.22,2.08Zm-1-3.47v.61a3.05,3.05,0,0,0,0,.69,1,1,0,0,0,1,.8.93.93,0,0,0,.91-.83,26.09,26.09,0,0,0,0-2.93l0-.84a.89.89,0,0,0-.18-.55,1,1,0,0,0-1.08-.35,1,1,0,0,0-.67.95c0,.4,0,.8,0,1.2v1.25Z"/><path class="cls-1" d="M102.23,72.64h-1.75a1.65,1.65,0,1,1,0-3.29c1.18,0,2.36,0,3.54,0a1.65,1.65,0,1,1,0,3.29Z"/><path class="cls-1" d="M103.35,73.32h-2.88a2.34,2.34,0,1,1,0-4.67c1.18,0,2.37,0,3.55,0a2.34,2.34,0,1,1,0,4.67Zm-1-3.31h-1.81a1,1,0,1,0,0,1.93H104A1,1,0,1,0,104,70Z"/><path class="cls-1" d="M65.05,109.87c0,.58,0,1.16,0,1.74a1.59,1.59,0,0,1-1.59,1.72,1.62,1.62,0,0,1-1.69-1.59c0-1.25,0-2.5,0-3.74a1.63,1.63,0,0,1,1.68-1.57,1.66,1.66,0,0,1,1.6,1.69v1.75Z"/><path class="cls-1" d="M63.39,114a2.27,2.27,0,0,1-1.56-.61,2.35,2.35,0,0,1-.74-1.64c0-1.24,0-2.52,0-3.8a2.32,2.32,0,0,1,4.64.14v3.51a2.29,2.29,0,0,1-2.25,2.4Zm0-6.9a.92.92,0,0,0-.94.9c-.05,1.25-.05,2.49,0,3.7a.94.94,0,0,0,.3.69.89.89,0,0,0,.67.24.93.93,0,0,0,.94-1v-1.06h0v-2.43a1,1,0,0,0-.93-1Z"/><path class="cls-1" d="M24.52,69.41h1.75a1.64,1.64,0,0,1,.19,3.27c-1.3,0-2.61,0-3.91,0A1.59,1.59,0,0,1,21.07,71a1.63,1.63,0,0,1,1.66-1.53Z"/><path class="cls-1" d="M24.51,73.41c-.67,0-1.33,0-2,0A2.2,2.2,0,0,1,21,72.65a2.4,2.4,0,0,1-.59-1.74,2.32,2.32,0,0,1,2.33-2.18h3.55a2.3,2.3,0,0,1,2.37,2.14,2.42,2.42,0,0,1-.6,1.77,2.19,2.19,0,0,1-1.55.73C25.83,73.4,25.17,73.41,24.51,73.41Zm-1.1-3.31h-.68a1,1,0,0,0-1,.89,1.06,1.06,0,0,0,.25.74.78.78,0,0,0,.58.27c1.26.06,2.56.06,3.85,0a.78.78,0,0,0,.59-.27,1,1,0,0,0,.25-.77.93.93,0,0,0-1-.86H23.41Z"/><path class="cls-1" d="M71,114.68a43.68,43.68,0,0,1-7.54.68,44.57,44.57,0,1,1,43.61-36.9h3.35a47.16,47.16,0,0,0,.62-7.47A47.68,47.68,0,1,0,63.5,118.7,46.5,46.5,0,0,0,71,118Z"/><path class="cls-1" d="M63.41,119.39a48.37,48.37,0,1,1,34-82.76A47.87,47.87,0,0,1,111.74,71a49.24,49.24,0,0,1-.64,7.58l-.09.58h-4.74l.14-.8a43.53,43.53,0,0,0-42.73-51h-.32A43.65,43.65,0,0,0,32.64,102a43.21,43.21,0,0,0,30.63,12.67h.27a42.23,42.23,0,0,0,7.35-.68l.8-.14v4.76l-.57.1a50.11,50.11,0,0,1-7.62.67Zm0-95.37h-.63a47,47,0,0,0,.68,94h.09a46.43,46.43,0,0,0,6.83-.56v-2a43.16,43.16,0,0,1-6.78.57h-.28a45,45,0,0,1-31.64-77A44.64,44.64,0,0,1,63.36,26h.33a44.76,44.76,0,0,1,44.73,44.19,45.33,45.33,0,0,1-.53,7.61h2A46.91,46.91,0,0,0,63.36,24Z"/><path class="cls-2" d="M78.32,183.87h-.76c-5-.1-6-2.29-6-6.56q0-14.62,0-29.26V122.87q0-18.57,0-37.14c0-4.62.88-6.68,6.07-6.68H204.93c5.88,0,6.82,1.81,6.82,7.6q0,44.67,0,89.35c0,6.1-.93,7.87-7.13,7.87H78.32Zm-1.23-5.49.57,0h127c.44,0,1.11,0,1.61,0,.05-.67.05-1.68.05-2.37q0-44.67,0-89.35c0-.61,0-1.49,0-2.11-.44,0-1,0-1.32,0H77.09c0,.44,0,.94,0,1.2q0,18.57,0,37.14v25.18q0,14.63,0,29.26C77.07,177.77,77.08,178.12,77.09,178.38Z"/><path class="cls-2" d="M172.1,204.12H116.35a4.42,4.42,0,0,1-4.42-4.42v-4.92a4.42,4.42,0,0,1,4.42-4.42h11.78c.25-2.63.55-6.17.71-8.21a2.73,2.73,0,0,1,5.45.43c-.2,2.63-.64,7.76-.92,10.31a1.15,1.15,0,0,0,0,.18,2.83,2.83,0,0,1-2.74,2.76H117.4v2.82h53.65v-2.82H154.11a2.74,2.74,0,0,1-2.73-2.65,2,2,0,0,0,0-.3c-.29-2.56-.76-7.67-1-10.18a2.74,2.74,0,1,1,5.46-.43c.15,1.94.47,5.45.73,8.09h15.5a4.42,4.42,0,0,1,4.42,4.42v4.92A4.42,4.42,0,0,1,172.1,204.12Z"/><path class="cls-2" d="M209,169.57H85.72a2.74,2.74,0,0,1,0-5.47H209a2.74,2.74,0,0,1,0,5.47Z"/><path class="cls-1" d="M121,106.09c.65-.54,1.24-1,1.85-1.53a26.59,26.59,0,0,1,18.69-5.8,26.06,26.06,0,0,1,15.73,6.47,26.45,26.45,0,0,1,9.34,18.3,26.84,26.84,0,0,1-15.9,26.88c-9.28,4-18.26,3.16-26.58-2.57a26,26,0,0,1-11.3-18.79,26.37,26.37,0,0,1,.6-9.93,2.07,2.07,0,0,1,2-1.81,2,2,0,0,1,2.1,2.55,23.85,23.85,0,0,0-.74,6.51,23.5,23.5,0,0,0,2.82,10.31,22.82,22.82,0,0,0,32.54,8.18,21.78,21.78,0,0,0,10.14-16A22.83,22.83,0,0,0,125,108.15a4.77,4.77,0,0,0-1.05.94c1.25-.08,2.41-.18,3.57-.21a2.05,2.05,0,0,1,2.18,1.9,2.09,2.09,0,0,1-1.83,2.2c-1.42.17-2.85.26-4.27.37s-2.57.18-3.85.29c-1.88.15-2.76-.64-2.85-2.51-.12-2.71-.31-5.42-.43-8.14a2,2,0,0,1,1.56-2,2,2,0,0,1,2.3,1,5.72,5.72,0,0,1,.35,2.17A9.64,9.64,0,0,0,121,106.09Z"/><text class="cls-3" transform="translate(48.54 265.91)">RPO flexible</text></svg>