<svg id="Capa_1" data-name="Capa 1" xmlns="http://www.w3.org/2000/svg" viewBox="0 0 226.77 333.23"><defs><style>.cls-1{fill:#009845;}.cls-2{fill:#c6c6c6;}.cls-3{font-size:23px;fill:#3c3c3b;font-family:CenturyGothic-Bold, Century Gothic;font-weight:700;letter-spacing:0.02em;}</style></defs><path class="cls-1" d="M49,63.82a3.07,3.07,0,0,0-.25,1.9c0,7.54,0,15.09,0,22.63,0,2.51-.6,3.56-2,3.62s-2.2-1-2.2-3.61q0-15,0-29.92c0-2.79.6-3.41,3.41-3.41Q62.93,55,78,55a6.26,6.26,0,0,1,1.84.2,2,2,0,0,1,1.48,2.12,1.86,1.86,0,0,1-1.64,1.78,10.65,10.65,0,0,1-2,.12c-7.92,0-15.84,0-23.76,0-.56,0-1.4-.36-1.65.38-.18.54.52.94.9,1.33a218.65,218.65,0,0,0,22,20.51,174.9,174.9,0,0,0,79.83,36.21,121.28,121.28,0,0,0,24,2,8.38,8.38,0,0,1,1.12,0,2.29,2.29,0,0,1,2.29,2.27,2.16,2.16,0,0,1-2,2.47,40.29,40.29,0,0,1-5.6.14,170.86,170.86,0,0,1-55.28-11.92c-26.22-10.28-48.71-26-68-46.46-.72-.77-1.43-1.56-2.15-2.33C49.22,63.88,49.14,63.88,49,63.82Z"/><path class="cls-1" d="M176.46,124.84c-.6,0-1.2,0-1.8,0a171.89,171.89,0,0,1-55.34-11.93,186.88,186.88,0,0,1-68-46.5c-.44-.46-.86-.92-1.29-1.39L49.13,64h0L49,64a2.28,2.28,0,0,0-.18,1.28c0,.14,0,.28,0,.42q0,6.47,0,12.93c0,3.23,0,6.47,0,9.7,0,2.59-.66,3.72-2.19,3.79a2,2,0,0,1-1.51-.5c-.59-.57-.86-1.61-.86-3.27q0-15,0-29.93c0-2.87.7-3.58,3.58-3.58H78a7,7,0,0,1,1.9.21,2.14,2.14,0,0,1,1.59,2.3,2,2,0,0,1-1.77,1.94,10.91,10.91,0,0,1-1.89.12h-7.9l-16,0h0a3.89,3.89,0,0,1-.47,0c-.54-.08-.88-.1-1,.31s.16.52.54.85l.32.3a217.91,217.91,0,0,0,22,20.49,175.58,175.58,0,0,0,79.75,36.18,119.64,119.64,0,0,0,23.95,2,9,9,0,0,1,1.15,0,2.45,2.45,0,0,1,2.44,2.43,2.35,2.35,0,0,1-2.2,2.65C179,124.78,177.74,124.84,176.46,124.84ZM48.87,63.62l.12,0,.17,0a.41.41,0,0,1,.23.1l.86,1c.43.46.85.93,1.29,1.39a186.57,186.57,0,0,0,67.91,46.41,171.75,171.75,0,0,0,55.23,11.91,41.37,41.37,0,0,0,5.57-.14,2,2,0,0,0,1.89-2.29,2.12,2.12,0,0,0-2.14-2.11,8.17,8.17,0,0,0-1.1,0,118.78,118.78,0,0,1-24-2A175.81,175.81,0,0,1,75,81.63,217.48,217.48,0,0,1,53,61.11l-.3-.28c-.36-.31-.81-.7-.64-1.22.23-.7.9-.61,1.39-.54a3.29,3.29,0,0,0,.42,0h0q8,0,16,0h7.9A9.13,9.13,0,0,0,79.63,59a1.68,1.68,0,0,0,1.5-1.62,1.8,1.8,0,0,0-1.36-2A6.07,6.07,0,0,0,78,55.21c-10.81,0-20.65,0-30.11,0-2.69,0-3.24.55-3.24,3.24V88.37c0,1.54.25,2.53.76,3a1.58,1.58,0,0,0,1.26.4c1.32-.05,1.85-1.05,1.86-3.44,0-3.23,0-6.47,0-9.7q0-6.47,0-12.93c0-.13,0-.26,0-.4a2.48,2.48,0,0,1,.29-1.59Z"/><path class="cls-2" d="M71.16,134.56q0,17.38,0,34.77c0,.82.37,1.95-.71,2.29a5.45,5.45,0,0,1-3.67-.07c-.6-.24-.53-.94-.53-1.49,0-1.75,0-3.49,0-5.24q0-32.15,0-64.3a13.22,13.22,0,0,1,.16-2.6A2.15,2.15,0,0,1,68.6,96,2.25,2.25,0,0,1,71,97.94a10.33,10.33,0,0,1,.15,2.23Q71.16,117.36,71.16,134.56Z"/><path class="cls-2" d="M93.6,141.48c0,9.28,0,18.57,0,27.86,0,.82.37,1.95-.72,2.29a5.19,5.19,0,0,1-3.66-.09c-.82-.38-.54-1.32-.54-2,0-6.85,0-13.71,0-20.57q0-17.38,0-34.77a10.7,10.7,0,0,1,.17-2.41,2.13,2.13,0,0,1,2.29-1.8,2.23,2.23,0,0,1,2.3,1.82,10.29,10.29,0,0,1,.17,2.22Q93.6,127.75,93.6,141.48Z"/><path class="cls-2" d="M116,147.27c0,7.42,0,14.84,0,22.26,0,1.84-.68,2.39-2.42,2.31-2.41-.11-2.55-.13-2.55-2.34q0-22.06,0-44.14a7.32,7.32,0,0,1,.09-1.48,2.36,2.36,0,0,1,2.3-2.09,2.22,2.22,0,0,1,2.39,1.94A10.33,10.33,0,0,1,116,126Q116,136.61,116,147.27Z"/><path class="cls-2" d="M133.52,150.84V132.9a5.5,5.5,0,0,1,.23-2.21,2.25,2.25,0,0,1,2.09-1.6,2.15,2.15,0,0,1,2.27,1.59,9,9,0,0,1,.34,2.58q0,18.12,0,36.25c0,2.2-.16,2.24-2.55,2.33-1.72.06-2.45-.44-2.43-2.31C133.58,163.3,133.52,157.07,133.52,150.84Z"/><path class="cls-2" d="M160.71,153.4c0,5.43-.07,10.85,0,16.27,0,1.88-.83,2.18-2.38,2.16s-2.46-.15-2.45-2.09c.08-10.85,0-21.7.05-32.55,0-2,1.09-3.33,2.57-3.24s2.2,1.4,2.2,3.37c0,5.36,0,10.72,0,16.08Z"/><text class="cls-3" transform="translate(40.77 265.91)">Rendimiento</text></svg>