<svg id="Capa_1" data-name="Capa 1" xmlns="http://www.w3.org/2000/svg" viewBox="0 0 226.77 303.5"><defs><style>.cls-1{fill:#c6c6c6;stroke:#c6c6c6;}.cls-1,.cls-2{stroke-miterlimit:10;stroke-width:2px;}.cls-2{fill:#009845;stroke:#009845;}.cls-3{font-size:23px;fill:#3c3c3b;font-family:CenturyGothic-Bold, Century Gothic;font-weight:700;letter-spacing:0.02em;}</style></defs><path class="cls-1" d="M112,70.13c0-1.48,0-3,0-4.44,0-.75-.19-1-1-1a52.76,52.76,0,0,0-17.16,3.89A52,52,0,0,0,77.06,80c-.62.63-.55.91,0,1.45,2.1,1.89,4.15,3.83,6.21,5.76a1.44,1.44,0,0,1,.51,1.62,1.33,1.33,0,0,1-1.2,1,1.83,1.83,0,0,1-1.45-.67l-5.88-5.5c-.83-.77-.84-.78-1.53.09A50.37,50.37,0,0,0,63.41,106.5a48.82,48.82,0,0,0-.69,12.19c0,.59.22.72.8.67,2.54-.23,5.08-.4,7.62-.59a1.49,1.49,0,0,1,1.59,1.34,1.42,1.42,0,0,1-1.39,1.52c-1.59.15-3.17.25-4.76.36-.9.06-1.8.15-2.71.16-.57,0-.77.16-.68.77a50.63,50.63,0,0,0,2.28,9.33A49.69,49.69,0,0,0,72,144.84c.2.29.42.58.61.88a1.38,1.38,0,0,1-.3,2,1.42,1.42,0,0,1-2-.41,49.56,49.56,0,0,1-3.14-4.72A53.7,53.7,0,0,1,69.53,84.7,53.51,53.51,0,0,1,85.7,69.59a52.21,52.21,0,0,1,19.88-7.2,53.76,53.76,0,0,1,60.55,43.39,50.92,50.92,0,0,1,.89,10.88,54,54,0,0,1-10.11,30.18c-.13.18-.27.34-.41.51a1.46,1.46,0,0,1-2,.4,1.43,1.43,0,0,1-.23-2.11,53,53,0,0,0,4.21-6.76A49.79,49.79,0,0,0,163.59,123c.11-.73-.12-.82-.75-.85-2.43-.14-4.87-.32-7.3-.5a1.44,1.44,0,1,1,.2-2.86c2.49.16,5,.33,7.46.55.6,0,.82,0,.87-.69a49.32,49.32,0,0,0-1.64-16.36A50.91,50.91,0,0,0,153.26,84c-.92-1.19-.91-1.19-2-.16l-5.58,5.22-.31.27a1.44,1.44,0,0,1-2.13,0,1.53,1.53,0,0,1,.22-2.2c1.13-1,2.27-2.07,3.4-3.11s2-1.88,3-2.79c.43-.38.44-.63,0-1a51.1,51.1,0,0,0-22.5-13.57,56.69,56.69,0,0,0-11.56-2c-.74-.06-1,.16-1,.94,0,2.85,0,5.7,0,8.56a5.43,5.43,0,0,1,0,.9,1.46,1.46,0,0,1-1.48,1.27A1.36,1.36,0,0,1,112,75c0-1.62,0-3.24,0-4.86Z"/><path class="cls-1" d="M96.75,116.1c0,5.7,1.7,9.6,4.88,12.87.81.82.94,1.62.37,2.24a1.45,1.45,0,0,1-2.19,0,19.48,19.48,0,0,1,11.26-33.32A19.18,19.18,0,0,1,125,101.49a10.26,10.26,0,0,1,1.51,1.27.8.8,0,0,0,1.31,0c1.47-1.31,3-2.61,4.44-3.91,2.15-1.88,4.29-3.75,6.45-5.62a1.49,1.49,0,0,1,2.2,0,1.45,1.45,0,0,1-.34,2.17c-3.11,2.73-6.23,5.44-9.35,8.16-.68.6-1.65,1.09-1.94,1.84s.74,1.47,1.15,2.21a19.49,19.49,0,0,1-3.15,23.31,3.21,3.21,0,0,1-.55.49,1.39,1.39,0,0,1-1.82-.12,1.49,1.49,0,0,1-.11-1.89c.29-.36.64-.67,1-1A16.66,16.66,0,0,0,127.27,108c-.37-.54-.58-.55-1-.13q-2.45,2.2-5,4.33a.92.92,0,0,0-.25,1.32,8.4,8.4,0,0,1-6.09,12,8.48,8.48,0,1,1-1.52-16.82,7.87,7.87,0,0,1,4.7,1.47.86.86,0,0,0,1.27-.09c1.61-1.45,3.24-2.88,4.9-4.27.53-.45.58-.73,0-1.19C119,100.28,113,99.24,106.75,102A15.8,15.8,0,0,0,96.75,116.1Zm11,1.07a5.68,5.68,0,0,0,5.62,5.7,5.69,5.69,0,0,0,0-11.38A5.68,5.68,0,0,0,107.77,117.17Z"/><path class="cls-2" d="M113.47,171c-13.69,0-27.37,0-41.06,0a5.63,5.63,0,0,1-3.86-1.63,68.36,68.36,0,0,1-8.17-8,70.53,70.53,0,0,1-9.83-14.74A69.48,69.48,0,0,1,43.76,124a70.78,70.78,0,0,1-.1-16.07,70.06,70.06,0,0,1,4.82-19.14A69.29,69.29,0,0,1,57.3,73.36a70,70,0,0,1,59.88-28A69.86,69.86,0,0,1,156.25,60,69.87,69.87,0,0,1,179.74,92.7a70,70,0,0,1-20.83,76.13c-.19.16-.39.32-.56.49A5.74,5.74,0,0,1,154,171C140.45,171,127,171,113.47,171Zm-.1-2.86q20.32,0,40.65,0a3.25,3.25,0,0,0,2.23-.79,68.46,68.46,0,0,0,14.68-17,66.61,66.61,0,0,0,9.68-31.5,64.74,64.74,0,0,0-.83-14.58A67.66,67.66,0,0,0,142,54.54a65.58,65.58,0,0,0-24.21-6.24,67.5,67.5,0,0,0-18.64,1.37,67.42,67.42,0,0,0-52.49,74.57,65.75,65.75,0,0,0,7.07,22.38,68,68,0,0,0,16.85,20.74,3.25,3.25,0,0,0,2.23.79Q93.1,168.12,113.37,168.13Z"/><path class="cls-2" d="M113.41,178.34h36.2a6.91,6.91,0,0,1,.91,0,1.39,1.39,0,0,1,.2,2.74,4,4,0,0,1-1,.1H77.26a4.48,4.48,0,0,1-1.22-.11,1.39,1.39,0,0,1,.26-2.74c.3,0,.6,0,.91,0Z"/><path class="cls-2" d="M102.36,151.53h1.31c1.13,0,1.3.17,1.32,1.26,0,.85,0,1.69,0,2.54,0,1.2-.17,1.35-1.4,1.35-.9,0-1.8,0-2.7,0-.71,0-1.06-.31-1-1,0-1.06,0-2.13,0-3.19,0-.64.31-.9.89-.91Z"/><path class="cls-2" d="M90.21,151.53h1.31c1.12,0,1.3.17,1.31,1.26,0,.85,0,1.69,0,2.54,0,1.2-.18,1.35-1.4,1.35-.9,0-1.8,0-2.7,0-.71,0-1.06-.31-1-1,0-1.06,0-2.13,0-3.19,0-.64.32-.9.9-.91Z"/><path class="cls-2" d="M135.39,151.53h1.72a.74.74,0,0,1,.82.82q0,1.72,0,3.45a.79.79,0,0,1-.87.87c-1.09,0-2.19,0-3.28,0a.87.87,0,0,1-1-1c0-1.06,0-2.13,0-3.2a.88.88,0,0,1,1-1C134.35,151.55,134.87,151.53,135.39,151.53Z"/><path class="cls-2" d="M121.88,154.05c0-.52,0-1,0-1.55,0-.72.31-1,1-1,1,0,2.08,0,3.12,0,.64,0,1,.27,1,.93,0,1.07,0,2.13,0,3.2,0,.68-.29,1-1,1-1.07,0-2.13,0-3.2,0-.61,0-.9-.28-.88-.91S121.88,154.63,121.88,154.05Z"/><path class="cls-2" d="M115.9,154.11c0,.57,0,1.15,0,1.72a.72.72,0,0,1-.78.84c-1.12,0-2.25,0-3.37,0a.82.82,0,0,1-.9-.93c0-1.09,0-2.19,0-3.28a.79.79,0,0,1,.89-.92H115c.62,0,.88.32.86.93S115.9,153.56,115.9,154.11Z"/><text class="cls-3" transform="translate(67.16 264.7)">Eficacia</text></svg>