<svg id="Capa_1" data-name="Capa 1" xmlns="http://www.w3.org/2000/svg" viewBox="0 0 170.08 170.08"><defs><style>.cls-1,.cls-2{fill:none;stroke-linecap:round;stroke-linejoin:round;stroke-width:4px;}.cls-1{stroke:#2d2a26;}.cls-2{stroke:#009845;}</style></defs><path class="cls-1" d="M94.27,131.21H39.38A2.39,2.39,0,0,1,37,128.82v-81L54.65,31.18h55.84a2.39,2.39,0,0,1,2.39,2.39V95"/><polyline class="cls-1" points="36.99 47.83 54.65 47.83 54.65 31.18"/><polyline class="cls-2" points="53.25 61.91 55.27 64.82 63.43 56.67"/><polyline class="cls-2" points="53.25 80.79 55.27 83.7 63.43 75.55"/><polyline class="cls-2" points="53.25 99.67 55.27 102.58 63.43 94.42"/><line class="cls-1" x1="70.48" y1="59.9" x2="94.68" y2="59.9"/><line class="cls-1" x1="70.48" y1="66.47" x2="98.56" y2="66.47"/><line class="cls-1" x1="70.48" y1="79.01" x2="94.68" y2="79.01"/><line class="cls-1" x1="70.48" y1="85.59" x2="98.56" y2="85.59"/><line class="cls-1" x1="70.48" y1="98.13" x2="85.98" y2="98.13"/><line class="cls-1" x1="70.48" y1="104.71" x2="82.58" y2="104.71"/><path class="cls-2" d="M111.23,138.89a21.76,21.76,0,1,1,21.86-21.55C133,129.24,123,139.16,111.23,138.89Z"/><path class="cls-2" d="M115.68,107.93a9.08,9.08,0,0,0-7.59-.47,4.14,4.14,0,0,0-.58,7.29c1.42.93,3.21,1,4.79,1.5a6.71,6.71,0,0,1,4.36,3.65,5.41,5.41,0,0,1-1.09,5.59c-2.28,2.44-5.81,1.78-8.55.56l-.7-.34"/><line class="cls-2" x1="111.66" y1="103.46" x2="111.66" y2="130.81"/></svg>