<svg id="Capa_1" data-name="Capa 1" xmlns="http://www.w3.org/2000/svg" viewBox="0 0 170.08 170.08"><defs><style>.cls-1,.cls-2{fill:none;stroke-linecap:round;stroke-linejoin:round;stroke-width:4px;}.cls-1{stroke:#2d2a26;}.cls-2{stroke:#009845;}</style></defs><path class="cls-1" d="M129.75,66.6H90l-5.13-5.13c-4.14-4.15-7.44-4-7.44-4H55.75c-3.79,0-4.11,4.82-4.11,4.82v8.19h0a4.38,4.38,0,0,0,0,.52v44.61a4.41,4.41,0,0,0,4.41,4.4h73.7a4.4,4.4,0,0,0,4.4-4.4V71A4.41,4.41,0,0,0,129.75,66.6Z"/><path class="cls-1" d="M117.6,48.91H77.84l-5.13-5.13c-4.15-4.15-7.44-4-7.44-4H43.6c-3.8,0-4.11,4.82-4.11,4.82v8.19h0a4.53,4.53,0,0,0,0,.52V97.92a4.4,4.4,0,0,0,4.4,4.41H117.6a4.4,4.4,0,0,0,4.4-4.41V53.31A4.4,4.4,0,0,0,117.6,48.91Z"/><line class="cls-2" x1="42.81" y1="136.06" x2="21.82" y2="115.08"/><polyline class="cls-2" points="19.49 128.93 19.49 113.29 36.48 113.29"/><line class="cls-2" x1="127.27" y1="34.02" x2="148.26" y2="55"/><polyline class="cls-2" points="150.59 41.15 150.59 56.79 133.59 56.79"/></svg>