<svg id="Capa_1" data-name="Capa 1" xmlns="http://www.w3.org/2000/svg" viewBox="0 0 170.08 170.08"><defs><style>.cls-1,.cls-2{fill:none;stroke-linecap:round;stroke-linejoin:round;stroke-width:4px;}.cls-1{stroke:#2d2a26;}.cls-2{stroke:#009845;}</style></defs><path class="cls-1" d="M88.81,129.92c-1.49,0-3,0-4.47,0a4.47,4.47,0,0,0,0,8.93q4.53.07,9.06,0a4.38,4.38,0,0,0,4.33-4.49,4.54,4.54,0,0,0-4.42-4.44C91.8,129.89,90.3,129.92,88.81,129.92Z"/><path class="cls-1" d="M39.14,77a45.83,45.83,0,0,1,91.66,0"/><path class="cls-1" d="M131.19,109.8c-.35.78-.4.51-.8,1.27-6.12,11.52-18.18,20.08-32.69,22.58"/><rect class="cls-1" x="33.29" y="77.87" width="12.12" height="31.93" rx="6.06"/><rect class="cls-1" x="124.68" y="77.87" width="12.12" height="31.93" rx="6.06"/><path class="cls-2" d="M68.75,109.7l.1.1.67-.23,11.33-3.49a1.82,1.82,0,0,1,.77-.1,31.09,31.09,0,0,0,9.53-.4,26.72,26.72,0,0,0,15.13-8.15A17,17,0,0,0,111,86.29a16.39,16.39,0,0,0-3.19-10.22,24,24,0,0,0-10.91-8.3,32,32,0,0,0-15.93-2,29.37,29.37,0,0,0-12.2,4.17,21.52,21.52,0,0,0-7.79,8,16,16,0,0,0-1.78,11,18.16,18.16,0,0,0,6,10.2,25.41,25.41,0,0,0,6,4c.66.32.72.52.41,1.18s-.6,1.21-.91,1.82Z"/><path class="cls-2" d="M72.68,88.86a3.15,3.15,0,1,1,3.24-3.1A3.1,3.1,0,0,1,72.68,88.86Z"/><path class="cls-2" d="M97.5,88.86a3.15,3.15,0,1,1-.06-6.29,3.15,3.15,0,1,1,.06,6.29Z"/><path class="cls-2" d="M85.05,88.86a3.15,3.15,0,1,1,0-6.29,3.15,3.15,0,1,1,0,6.29Z"/></svg>