<svg id="Capa_1" data-name="Capa 1" xmlns="http://www.w3.org/2000/svg" viewBox="0 0 170.08 170.08"><defs><style>.cls-1,.cls-2{fill:none;stroke-linecap:round;stroke-linejoin:round;stroke-width:4px;}.cls-1{stroke:#009845;}.cls-2{stroke:#2d2a26;}</style></defs><path class="cls-1" d="M109.82,101.08s-8.74,11.23-20,7.38a14.19,14.19,0,0,1-8.08-7.14,12.68,12.68,0,0,1,6.45-16.84A15.5,15.5,0,0,1,97,83.62s7.8.4,15.59,11.14a50.84,50.84,0,0,0,11.94,12.41,18.65,18.65,0,0,0,17.61,1.73,14.65,14.65,0,0,0,7.65-8.4,13.92,13.92,0,0,0-1-12,10.83,10.83,0,0,0-.91-1.4,14,14,0,0,0-9.63-5.28c-4.43-.5-8.12,1.32-11.69,3.75A45.18,45.18,0,0,0,119.84,91"/><path class="cls-2" d="M115.46,112.24v5.54c0,7-21.51,12.61-48,12.61s-48.06-5.64-48.06-12.61"/><line class="cls-2" x1="115.46" y1="52.3" x2="115.46" y2="80.06"/><path class="cls-2" d="M115.46,52.3c0,7-21.51,12.61-48,12.61S19.35,59.26,19.35,52.3,40.86,39.69,67.41,39.69,115.46,45.33,115.46,52.3Z"/><path class="cls-2" d="M19.35,53.59v30.6c0,7,21.51,12.62,48.06,12.62"/><line class="cls-2" x1="19.35" y1="86.95" x2="19.35" y2="117.55"/></svg>