<svg id="Capa_1" data-name="Capa 1" xmlns="http://www.w3.org/2000/svg" viewBox="0 0 170.08 170.08"><defs><style>.cls-1,.cls-2{fill:none;stroke-linecap:round;stroke-linejoin:round;stroke-width:4px;}.cls-1{stroke:#2d2a26;}.cls-2{stroke:#009845;}</style></defs><rect class="cls-1" x="32.41" y="55.37" width="105.25" height="72.19" rx="5.67"/><path class="cls-1" d="M32.41,63.46v-14a7,7,0,0,1,7-7h24.2a7,7,0,0,1,7,7v5.37"/><path class="cls-2" d="M79.48,98s-8.32,10.7-19.05,7a13.49,13.49,0,0,1-7.69-6.8,12.08,12.08,0,0,1,6.14-16,14.63,14.63,0,0,1,8.43-.81s7.43.37,14.85,10.6a48.53,48.53,0,0,0,11.36,11.82,17.78,17.78,0,0,0,16.77,1.64,14,14,0,0,0,7.29-8,13.28,13.28,0,0,0-1-11.41,11.61,11.61,0,0,0-.86-1.33,13.38,13.38,0,0,0-9.17-5c-4.22-.47-7.73,1.25-11.13,3.57A42.64,42.64,0,0,0,89,88.39"/></svg>