<svg id="Capa_1" data-name="Capa 1" xmlns="http://www.w3.org/2000/svg" viewBox="0 0 170.08 170.08"><defs><style>.cls-1,.cls-2{fill:none;stroke-linecap:round;stroke-linejoin:round;stroke-width:4px;}.cls-1{stroke:#2d2a26;}.cls-2{stroke:#009845;}</style></defs><path class="cls-1" d="M97.05,113.51H66s-6.26.67-6.86,4.1c0,0-1.64,3.14,1.94,6.12l21.34,12.39s5.9,2.17,8.95-.6"/><path class="cls-1" d="M89.59,34s-4.48-1.86-8.36,0L50.05,51.81S43.78,56.13,43.78,67v40.43s.3,9,8.8,5.08l7.91-4.18s3.28-.9,3.73-7.46V70.2s-1-6.9,8.06-10.19l24.5-8.36"/><path class="cls-2" d="M97.05,83.29v40.89s-.89,9.55-5.67,11.34l29.4-8.66s4.77-1.64,5.52-9.25V52.85s.3-9-8.21-11.19L89.59,34s7.76,0,7.16,18.72Z"/></svg>