<svg id="Capa_1" data-name="Capa 1" xmlns="http://www.w3.org/2000/svg" viewBox="0 0 170.08 170.08"><defs><style>.cls-1{fill:none;stroke:#009845;stroke-linecap:round;stroke-linejoin:round;stroke-width:4px;}</style></defs><path class="cls-1" d="M37,108.73V35.38a4.2,4.2,0,0,1,4.2-4.2h87.63a4.2,4.2,0,0,1,4.21,4.2V123a4.21,4.21,0,0,1-4.21,4.21H41.22A4.21,4.21,0,0,1,37,123v-8.2"/><rect class="cls-1" x="46.54" y="127.22" width="25.16" height="11.68" rx="4.77"/><rect class="cls-1" x="97.31" y="127.22" width="25.16" height="11.68" rx="4.77"/><line class="cls-1" x1="48.24" y1="86.37" x2="48.24" y2="71.33"/><path class="cls-1" d="M98.71,42.4h17.74a4.2,4.2,0,0,1,4.2,4.2v64a4.2,4.2,0,0,1-4.2,4.2h-64a4.2,4.2,0,0,1-4.2-4.2v-5.28"/><path class="cls-1" d="M48.24,52.68V46.6a4.2,4.2,0,0,1,4.2-4.2h39.1"/><rect class="cls-1" x="43.71" y="52.83" width="9.63" height="18.02" rx="3.93"/><rect class="cls-1" x="43.71" y="86.71" width="9.63" height="18.02" rx="3.93"/><circle class="cls-1" cx="84.82" cy="78.69" r="26.01"/><circle class="cls-1" cx="84.73" cy="79.23" r="9.63"/><line class="cls-1" x1="84.73" y1="61.83" x2="84.73" y2="69.6"/><line class="cls-1" x1="84.73" y1="88.86" x2="84.73" y2="96.62"/><line class="cls-1" x1="102.12" y1="79.23" x2="94.36" y2="79.23"/><line class="cls-1" x1="75.1" y1="79.23" x2="67.33" y2="79.23"/><line class="cls-1" x1="97.03" y1="66.93" x2="91.54" y2="72.42"/><line class="cls-1" x1="77.92" y1="86.04" x2="72.43" y2="91.53"/><line class="cls-1" x1="97.03" y1="91.53" x2="91.54" y2="86.04"/><line class="cls-1" x1="77.92" y1="72.42" x2="72.43" y2="66.93"/></svg>