<svg id="Capa_1" data-name="Capa 1" xmlns="http://www.w3.org/2000/svg" viewBox="0 0 170.08 170.08"><defs><style>.cls-1,.cls-2{fill:none;stroke-linecap:round;stroke-linejoin:round;stroke-width:4px;}.cls-1{stroke:#009845;}.cls-2{stroke:#2d2a26;}</style></defs><path class="cls-1" d="M78.89,70.8a9,9,0,0,1-3.5,4c-1,.76-2,0-2.71-.7a2,2,0,0,0-2.6-.34A8.35,8.35,0,0,1,68,74.6a2.78,2.78,0,0,0-2.46,2.92c0,1.53-1,2.13-2.37,2.17-.7,0-1.41,0-2.11,0-1.46,0-2.47-.57-2.54-2.21a2.62,2.62,0,0,0-2.24-2.7A5.6,5.6,0,0,1,54.48,74a2.3,2.3,0,0,0-3.39.23,2.06,2.06,0,0,1-3.22,0c-.55-.53-1.07-1.09-1.66-1.59-1.2-1-1.35-2.16-.27-3.31a2.5,2.5,0,0,0,.33-3.44,5.34,5.34,0,0,1-.68-1.78A2.71,2.71,0,0,0,43,61.77c-2.18-.3-2.45-.77-2.45-3.48s.26-3.25,2.37-3.55a2.72,2.72,0,0,0,2.68-2.25,6.78,6.78,0,0,1,.87-2.12,2.09,2.09,0,0,0-.22-2.76c-1.52-1.83-1.43-2.32.27-4,.41-.41.84-.79,1.23-1.22,1-1.13,2.14-1.22,3.15-.18,1.27,1.32,2.48,1.27,3.88.31a3.76,3.76,0,0,1,1.39-.61,2.65,2.65,0,0,0,2.32-2.82c.06-1.63,1-2.24,2.51-2.26.7,0,1.41,0,2.11,0,1.39.05,2.35.6,2.41,2.14a2.74,2.74,0,0,0,2.37,2.81,5.25,5.25,0,0,1,1.58.68c1.27.77,2.39,1,3.58-.28s2.27-.85,3.42.1c2.53,2.11,2.73,3,1,5.69a1.87,1.87,0,0,0-.08,2.14A7.43,7.43,0,0,1,78.23,52a3.09,3.09,0,0,0,3.29,2.79,1.71,1.71,0,0,1,1.81,1.65,21.88,21.88,0,0,1,0,3.62,1.73,1.73,0,0,1-1.8,1.66,2.92,2.92,0,0,0-3.09,2.55,3.26,3.26,0,0,1-.54,1.22c-1.09,1.41-1.26,2.69.29,3.94C78.54,69.71,78.65,70.31,78.89,70.8Z"/><path class="cls-1" d="M72.36,58.27a10.38,10.38,0,1,1-10.25-10.4A10.2,10.2,0,0,1,72.36,58.27Z"/><path class="cls-2" d="M35.52,67.39c-4.39,2.89-7.25,8.07-6.56,13.14a14.7,14.7,0,0,0,13.82,13.1c1.78.14,3.58.22,5.37.22q18.78,0,37.56,0h4.52c10.7,0,21.4,0,32.1,0a38.87,38.87,0,0,0,8.68-.95,13.65,13.65,0,0,0,10.17-12.1c.47-5-2.93-10.33-7.92-12.37-.9-.37-1.83-.67-2.75-1a4.18,4.18,0,0,1-2.93-5,31.16,31.16,0,0,0-2.33-19.52c-4-8.56-11-13-20.15-14.27A25.4,25.4,0,0,0,82.22,37.4"/><path class="cls-2" d="M85.13,131.67a5,5,0,1,0,5,5A5,5,0,0,0,85.13,131.67Z"/><path class="cls-2" d="M108.2,127.28a5,5,0,1,0,5,5A5,5,0,0,0,108.2,127.28Z"/><line class="cls-2" x1="85.1" y1="131.49" x2="85.1" y2="93.88"/><polyline class="cls-2" points="77.85 93.88 77.85 115.11 71.31 121.65"/><polyline class="cls-2" points="92.29 93.88 92.29 115.11 98.83 121.65"/><polyline class="cls-2" points="101.58 94.53 101.58 110.52 108.11 117.06 108.11 127.08"/><polyline class="cls-2" points="110.58 94.17 110.58 106.23 117.12 112.76 117.12 122.79"/><path class="cls-2" d="M56.86,132.32a5,5,0,0,0,10.09,0,5,5,0,0,0-10.09,0Z"/><polyline class="cls-2" points="68.5 94.53 68.5 110.52 61.96 117.06 61.96 127.08"/><polyline class="cls-2" points="59.49 94.17 59.49 106.23 52.96 112.76 52.96 122.79"/></svg>