<svg id="Capa_1" data-name="Capa 1" xmlns="http://www.w3.org/2000/svg" viewBox="0 0 170.08 170.08"><defs><style>.cls-1,.cls-2{fill:none;stroke-linecap:round;stroke-linejoin:round;stroke-width:4px;}.cls-1{stroke:#2d2a26;}.cls-2{stroke:#009845;}</style></defs><path class="cls-1" d="M141.71,54.67c0-7.09,0-14.18,0-21.27,0-3.59-1.46-5-5.11-5-13.88,0-27.76,0-41.64,0a7.92,7.92,0,0,0-6.09,2.54q-29.18,29.3-58.44,58.5c-2.79,2.8-2.78,3.23,0,6q22.13,22.14,44.27,44.27c2.73,2.73,3.21,2.73,6-.11q29.13-29.11,58.29-58.21a8.44,8.44,0,0,0,2.68-6.64C141.64,68.05,141.71,61.36,141.71,54.67Z"/><path class="cls-1" d="M121,41.88a7.25,7.25,0,0,1,7.24,7,7.34,7.34,0,0,1-6.9,7.36A7.19,7.19,0,1,1,121,41.88Z"/><path class="cls-2" d="M104.89,78A18.87,18.87,0,0,0,94.52,66a8.64,8.64,0,0,0-11.73,9.77c.67,3.47,3.14,6.3,4.75,9.35,1.83,3.47,2.61,8.16.93,11.82a11.33,11.33,0,0,1-10,6.55c-7,.16-11.13-6.08-13.3-12-.19-.51-.37-1-.54-1.54"/><line class="cls-2" x1="105.71" y1="65.44" x2="64.87" y2="105.39"/></svg>