<svg id="Capa_1" data-name="Capa 1" xmlns="http://www.w3.org/2000/svg" viewBox="0 0 170.08 170.08"><defs><style>.cls-1,.cls-2{fill:none;stroke-linecap:round;stroke-linejoin:round;stroke-width:4px;}.cls-1{stroke:#009845;}.cls-2{stroke:#2d2a26;}</style></defs><path class="cls-1" d="M108.94,103.41C108,106,106,107.51,104,109c-1.43,1.07-2.76,0-3.81-1a2.78,2.78,0,0,0-3.65-.47,11.42,11.42,0,0,1-3,1.2,3.88,3.88,0,0,0-3.45,4.1c-.06,2.15-1.36,3-3.33,3.06-1,0-2,0-3,0-2.06,0-3.47-.8-3.57-3.11A3.7,3.7,0,0,0,77.13,109a7.46,7.46,0,0,1-2.45-1.08c-1.72-1.19-3.2-1.28-4.76.33s-3,1.35-4.51-.06c-.78-.74-1.52-1.54-2.33-2.23-1.7-1.44-1.91-3-.39-4.65a3.52,3.52,0,0,0,.46-4.83,7.82,7.82,0,0,1-1-2.5,3.81,3.81,0,0,0-3.67-3.26c-3.06-.42-3.43-1.08-3.44-4.88s.37-4.57,3.33-5c2-.28,3.31-1.07,3.76-3.16a10,10,0,0,1,1.22-3,2.93,2.93,0,0,0-.31-3.88c-2.12-2.57-2-3.25.39-5.66.57-.57,1.18-1.11,1.71-1.71,1.41-1.58,3-1.72,4.43-.25,1.78,1.85,3.49,1.78,5.44.44a5.37,5.37,0,0,1,2-.86,3.73,3.73,0,0,0,3.26-4c.08-2.28,1.43-3.13,3.52-3.16,1,0,2,0,3,0,1.94.06,3.29.83,3.38,3a3.83,3.83,0,0,0,3.32,3.94,7.55,7.55,0,0,1,2.22,1c1.79,1.09,3.36,1.35,5-.39,1.5-1.56,3.19-1.2,4.79.14,3.56,3,3.85,4.25,1.46,8a2.62,2.62,0,0,0-.12,3A10.79,10.79,0,0,1,108,77c.55,2.54,1.94,3.9,4.62,3.92a2.39,2.39,0,0,1,2.53,2.31,28.84,28.84,0,0,1,0,5.09,2.42,2.42,0,0,1-2.53,2.32,4.11,4.11,0,0,0-4.33,3.58,4.4,4.4,0,0,1-.76,1.71c-1.53,2-1.77,3.78.4,5.53C108.45,101.87,108.6,102.71,108.94,103.41Z"/><path class="cls-1" d="M99.78,85.82a14.57,14.57,0,1,1-14.4-14.6A14.32,14.32,0,0,1,99.78,85.82Z"/><path class="cls-2" d="M33,71.22A53.87,53.87,0,0,1,138.9,85"/><path class="cls-2" d="M137.24,98.33A53.86,53.86,0,0,1,31.18,85"/><polyline class="cls-2" points="19.21 96.35 31.18 85.04 44.25 97.18"/><polyline class="cls-2" points="150.86 73.72 138.9 85.04 125.83 72.89"/></svg>