<svg id="Capa_1" data-name="Capa 1" xmlns="http://www.w3.org/2000/svg" viewBox="0 0 170.08 170.08"><defs><style>.cls-1{fill:none;stroke:#2d2a26;stroke-linecap:round;stroke-linejoin:round;stroke-width:4px;}</style></defs><polygon class="cls-1" points="34.97 45.12 66.54 41.1 135.11 52.3 135.11 118.46 66.54 128.98 34.97 124.99 34.97 45.12"/><line class="cls-1" x1="66.54" y1="41.1" x2="66.54" y2="128.98"/><line class="cls-1" x1="89.71" y1="44.88" x2="89.71" y2="125.01"/><line class="cls-1" x1="111.11" y1="48.38" x2="111.11" y2="121.61"/><line class="cls-1" x1="72.48" y1="53.01" x2="83.76" y2="54.82"/><line class="cls-1" x1="72.48" y1="72.53" x2="83.76" y2="73.34"/><line class="cls-1" x1="72.48" y1="94.37" x2="83.76" y2="94.16"/><line class="cls-1" x1="83.76" y1="114.9" x2="72.48" y2="115.7"/><line class="cls-1" x1="95.41" y1="55.78" x2="105.5" y2="57.59"/><line class="cls-1" x1="95.41" y1="74.3" x2="105.5" y2="75.11"/><line class="cls-1" x1="95.41" y1="94.12" x2="105.5" y2="93.92"/><line class="cls-1" x1="105.5" y1="112.65" x2="95.41" y2="113.45"/><line class="cls-1" x1="118.99" y1="59.95" x2="128.1" y2="60.57"/><line class="cls-1" x1="118.99" y1="76" x2="128.1" y2="76.72"/><line class="cls-1" x1="128.1" y1="94.05" x2="118.99" y2="93.77"/><line class="cls-1" x1="128.1" y1="110.67" x2="118.99" y2="111.29"/></svg>