<svg id="Capa_1" data-name="Capa 1" xmlns="http://www.w3.org/2000/svg" viewBox="0 0 243.97 301.85"><defs><style>.cls-1,.cls-2{fill:none;stroke-linecap:round;stroke-linejoin:round;stroke-width:5px;}.cls-1{stroke:#c6c6c6;}.cls-2{stroke:#009845;}.cls-3{font-size:23px;fill:#3c3c3b;font-family:CenturyGothic-Bold, Century Gothic;font-weight:700;letter-spacing:0.02em;}</style></defs><polyline class="cls-1" points="80.69 151.83 46.23 151.83 46.23 33.55 131.59 33.55 131.59 59.12"/><polyline class="cls-1" points="131.59 140.21 131.59 151.83 116.01 151.83"/><line class="cls-1" x1="63.43" y1="49.15" x2="114.39" y2="49.15"/><line class="cls-1" x1="63.43" y1="62.23" x2="114.39" y2="62.23"/><line class="cls-1" x1="64.91" y1="75.32" x2="111.49" y2="75.32"/><line class="cls-1" x1="63.43" y1="75.32" x2="110.01" y2="75.32"/><line class="cls-1" x1="63.43" y1="88.4" x2="102.89" y2="88.4"/><line class="cls-1" x1="63.43" y1="101.48" x2="102.89" y2="101.48"/><line class="cls-1" x1="63.43" y1="114.56" x2="108.64" y2="114.56"/><line class="cls-1" x1="63.43" y1="127.64" x2="94.73" y2="127.64"/><path class="cls-2" d="M189.89,155.61q-15.15-.06-30.29,0c-4.73,0-8,2-8,4.84,0,.83,0,1.65,0,2.48,0,1.33,1,1.91,3.23,1.91h40c1.9,0,2.92-.61,2.93-1.74,0-.92,0-1.83,0-2.75C197.71,157.65,194.45,155.62,189.89,155.61Z"/><rect class="cls-2" x="122.24" y="90.21" width="54.67" height="31.64" transform="translate(137.92 -76.94) rotate(51.02)"/><rect class="cls-2" x="124.57" y="61.24" width="9.74" height="39.32" transform="translate(110.92 -70.61) rotate(51.02)"/><rect class="cls-2" x="165.03" y="111.41" width="10" height="39.32" transform="translate(164.98 -83.56) rotate(51.02)"/><rect class="cls-2" x="121.87" y="113.3" width="21.43" height="10.54" transform="translate(141.37 -59.08) rotate(51.02)"/><path class="cls-2" d="M130.75,126.11c-3.8,3.25-7.57,6.53-11.35,9.8l-15.63,13.51L100,152.68a4.83,4.83,0,0,1-2.79,1.25A5.69,5.69,0,0,1,91,150.31a5.63,5.63,0,0,1,2-6.56q10.51-7.65,21-15.27c3.9-2.83,7.82-5.64,11.69-8.51"/><text class="cls-3" transform="translate(41.03 216.95)">Cumplimiento <tspan x="-8.98" y="25">legal y brechas </tspan><tspan x="7.12" y="50">de retención</tspan></text></svg>