<svg id="Capa_1" data-name="Capa 1" xmlns="http://www.w3.org/2000/svg" viewBox="0 0 271.49 301.85"><defs><style>.cls-1,.cls-2,.cls-3{fill:none;stroke-width:5px;}.cls-1{stroke:#c6c6c6;}.cls-1,.cls-3{stroke-linecap:round;stroke-linejoin:round;}.cls-2,.cls-3{stroke:#009845;}.cls-2{stroke-miterlimit:10;}.cls-4{font-size:23px;fill:#3c3c3b;font-family:CenturyGothic-Bold, Century Gothic;font-weight:700;letter-spacing:0.02em;}</style></defs><path class="cls-1" d="M84.6,83.88h0c0,8.54-.09,17.08,0,25.62A52,52,0,0,0,88.87,130c8.86,20,27.63,31.74,49.69,30.73a50.78,50.78,0,0,0,47.83-44.27c1-7.73.38-15.47.47-23.21.13-12.5,0-25,0-37.51,0-2.06-.52-2.84-2.72-2.61a55.87,55.87,0,0,1-6.06-.12C163,53,149.34,48.7,137.82,38.58c-1.62-1.41-2.7-1.28-4.23.07A56.66,56.66,0,0,1,118,48.41c-9.79,4.18-20.14,4.82-30.56,4.72-2.57,0-2.88.89-2.86,3C84.65,65.39,84.6,74.63,84.6,83.88Z"/><path class="cls-2" d="M135.74,83.65c-1.86,0-3.72.12-5.57.25-4.69.32-9.3,1.55-12.75,5-2.52,2.49-3.41,6.65-3.5,10.09a58.68,58.68,0,0,0,2.29,16.69c2.12,8,5.13,15.54,11.29,21.45,5.36,5.14,10.84,5.38,15.93,0a47.76,47.76,0,0,0,11.28-19.8,57.77,57.77,0,0,0,2-11.22c.3-3.69.7-7.9,0-11.55-1-5.28-5.61-8.52-10.57-9.8A40.32,40.32,0,0,0,135.74,83.65Z"/><path class="cls-2" d="M121.74,85.56c2-7.38,7.38-12.68,13.76-12.68s11.79,5.3,13.76,12.68"/><path class="cls-3" d="M117,60.79s4,12.1,12.71,13.62"/><path class="cls-3" d="M105,69.36s-3.76,11.51,10,22.55"/><path class="cls-3" d="M100.64,120.34s-1.53-17.72,13-20.25"/><path class="cls-3" d="M113.41,142.57s-7.82-15,2-28"/><path class="cls-3" d="M154.79,60.79s-4,12.1-12.71,13.62"/><path class="cls-3" d="M166.85,69.36s3.76,11.51-10,22.55"/><path class="cls-3" d="M171.2,120.34s1.52-17.72-13-20.25"/><path class="cls-3" d="M158.42,142.57s8.11-15.54-2.58-28.69"/><text class="cls-4" transform="translate(26.04 222.32)">Amenazas internas <tspan x="49.91" y="25">y externas</tspan></text></svg>