<svg xmlns="http://www.w3.org/2000/svg" viewBox="0 0 99.21 99.21"><defs><style>.cls-1{opacity:0.6;}.cls-2{fill:#fff;}</style></defs><g id="Capa_1" data-name="Capa 1"><g class="cls-1"><path class="cls-2" d="M49.61,40.94a8.67,8.67,0,1,0,8.66,8.67A8.68,8.68,0,0,0,49.61,40.94Z"/><path class="cls-2" d="M66.68,24.66H32.54A7.54,7.54,0,0,0,24.87,32V67.18a7.53,7.53,0,0,0,7.67,7.37H66.68a7.53,7.53,0,0,0,7.66-7.37V32A7.53,7.53,0,0,0,66.68,24.66ZM49.61,65.24A15.63,15.63,0,1,1,65.24,49.61,15.65,15.65,0,0,1,49.61,65.24ZM66.25,38.11A4.92,4.92,0,1,1,71,33.19,4.83,4.83,0,0,1,66.25,38.11Z"/></g></g></svg>