<svg xmlns="http://www.w3.org/2000/svg" viewBox="0 0 99.21 99.21"><defs><style>.cls-1{fill:#fff;opacity:0.6;}</style></defs><g id="Capa_1" data-name="Capa 1"><path class="cls-1" d="M64.26,18.64a15.62,15.62,0,0,1,11.42,4.94,31.67,31.67,0,0,0,9.93-3.8,15.68,15.68,0,0,1-6.88,8.65,31.43,31.43,0,0,0,9-2.46,31.58,31.58,0,0,1-7.8,8.09c1,22-15.41,46.51-44.44,46.51a44.31,44.31,0,0,1-24-7,31.39,31.39,0,0,0,23.15-6.48,15.62,15.62,0,0,1-14.6-10.85A15.72,15.72,0,0,0,27.1,56,15.65,15.65,0,0,1,14.56,40.42a15.72,15.72,0,0,0,7.09,2A15.65,15.65,0,0,1,16.81,21.5,44.37,44.37,0,0,0,49,37.84,15.66,15.66,0,0,1,64.26,18.64Z"/></g></svg>